<svg xmlns="http://www.w3.org/2000/svg" xmlns:xlink="http://www.w3.org/1999/xlink" viewBox="0 0 491.53 458.4">
    <defs>
        <linearGradient id="linear-gradient" x1="-12519.54" y1="-173.22" x2="-12395.29" y2="-173.22"
                        gradientTransform="matrix(-1, -0.05, -0.05, 1, -12341.74, -317.9)"
                        gradientUnits="userSpaceOnUse">
            <stop offset="0.01" stop-color="#3c6127"/>
            <stop offset="1" stop-color="#639c38"/>
        </linearGradient>
        <linearGradient id="linear-gradient-2" x1="-4033.88" y1="3216.35" x2="-4033.88" y2="3128.98"
                        gradientTransform="translate(1067.52 -4842.9) rotate(-41.45)" xlink:href="#linear-gradient"/>
        <linearGradient id="linear-gradient-3" x1="-12507.65" y1="-210.72" x2="-12448.83" y2="-210.72"
                        xlink:href="#linear-gradient"/>
        <linearGradient id="linear-gradient-4" x1="-2393.83" y1="2710.49" x2="-2393.83" y2="2624.7"
                        gradientTransform="translate(908.67 -3346.51) rotate(-29.45)" xlink:href="#linear-gradient"/>
        <linearGradient id="linear-gradient-5" x1="287.49" y1="299.16" x2="95.7" y2="299.16"
                        gradientUnits="userSpaceOnUse">
            <stop offset="0" stop-color="#ffc05c"/>
            <stop offset="1" stop-color="#ff3857"/>
        </linearGradient>
        <linearGradient id="linear-gradient-6" x1="287.49" y1="309.65" x2="95.7" y2="309.65"
                        xlink:href="#linear-gradient-5"/>
        <linearGradient id="linear-gradient-7" x1="287.49" y1="320.13" x2="95.7" y2="320.13"
                        xlink:href="#linear-gradient-5"/>
        <linearGradient id="linear-gradient-8" x1="19.23" y1="358.55" x2="88.91" y2="358.55"
                        gradientUnits="userSpaceOnUse">
            <stop offset="0" stop-color="#40d5e6"/>
            <stop offset="1" stop-color="#57f"/>
        </linearGradient>
        <linearGradient id="linear-gradient-9" x1="70.35" y1="397.43" x2="133.35" y2="397.43"
                        xlink:href="#linear-gradient-8"/>
        <linearGradient id="linear-gradient-10" x1="75.73" y1="406.59" x2="123.02" y2="406.59"
                        xlink:href="#linear-gradient-8"/>
        <linearGradient id="linear-gradient-11" x1="58.65" y1="368.53" x2="113.73" y2="368.53"
                        xlink:href="#linear-gradient-8"/>
        <linearGradient id="linear-gradient-12" x1="26.78" y1="426.73" x2="77.6" y2="426.73"
                        gradientUnits="userSpaceOnUse">
            <stop offset="0" stop-color="#ff9340"/>
            <stop offset="1" stop-color="#ffce45"/>
        </linearGradient>
        <linearGradient id="linear-gradient-13" x1="46.02" y1="447.53" x2="96.84" y2="447.53"
                        gradientUnits="userSpaceOnUse">
            <stop offset="0" stop-color="#c97332"/>
            <stop offset="1" stop-color="#ffce45"/>
        </linearGradient>
        <linearGradient id="linear-gradient-14" x1="312.6" y1="321.78" x2="397.64" y2="321.78"
                        xlink:href="#linear-gradient-8"/>
        <linearGradient id="linear-gradient-15" x1="346.26" y1="231.19" x2="374.69" y2="231.19"
                        xlink:href="#linear-gradient-8"/>
        <linearGradient id="linear-gradient-16" x1="346.26" y1="246.26" x2="372.36" y2="246.26"
                        xlink:href="#linear-gradient-8"/>
        <linearGradient id="linear-gradient-17" x1="346.26" y1="238.72" x2="368.84" y2="238.72"
                        xlink:href="#linear-gradient-8"/>
        <linearGradient id="linear-gradient-18" x1="312.6" y1="250.86" x2="357.39" y2="250.86"
                        gradientUnits="userSpaceOnUse">
            <stop offset="0" stop-color="#d3dae0"/>
            <stop offset="1" stop-color="#fff"/>
        </linearGradient>
        <linearGradient id="linear-gradient-19" x1="397.95" y1="183.85" x2="421.59" y2="183.85"
                        gradientUnits="userSpaceOnUse">
            <stop offset="0" stop-color="#4aafff"/>
            <stop offset="1" stop-color="#2388d9"/>
        </linearGradient>
        <linearGradient id="linear-gradient-20" x1="397.95" y1="176.06" x2="416.48" y2="176.06"
                        xlink:href="#linear-gradient-19"/>
    </defs>
    <g style="isolation:isolate">
        <g id="Слой_1" data-name="Слой 1">
            <path d="M158.29,185.91c8.05,17.57,12.58,34.2,6.65,41.62a9.4,9.4,0,0,1-1.15,1.21c-4.57,4-13.55,4.11-28.72-1.88-40.36-15.94-42.28-43.46-50.45-70.33-8-26.54-36.16-22.06-36.88-21.94C113.25,111.77,144.63,156.11,158.29,185.91Z"
                  transform="translate(-19.23 -20.8)" style="fill:url(#linear-gradient)"/>
            <path d="M164.94,227.53a9.4,9.4,0,0,1-1.15,1.21c-7.58-4.57-22.1-14.25-28.95-25.13a163.36,163.36,0,0,1-8.82-17C120.59,175.06,115,163.13,105.15,154l1.09-1.18c10,9.38,15.73,21.45,21.23,33.14a160,160,0,0,0,8.73,16.83C142.88,213.36,157.55,223.08,164.94,227.53Z"
                  transform="translate(-19.23 -20.8)" style="fill:url(#linear-gradient-2)"/>
            <path d="M151.28,193.09c-.48,1.17-.79,1.83-.82,1.91-.12-.65-.24-1.29-.37-1.91-5.38-27.59-12.58-30.47-34.18-54.61-22.08-24.69-9.38-47.69-9.38-47.69C180.51,112.17,156.3,180.75,151.28,193.09Z"
                  transform="translate(-19.23 -20.8)" style="fill:url(#linear-gradient-3)"/>
            <path d="M151.28,193.09c-.48,1.17-.79,1.83-.82,1.91-.12-.65-.24-1.29-.37-1.91,2.4-23.85-12-51.84-16.51-56.87-4.68-5.2-7.57-12.35-8.65-15-.19-.44-.36-.87-.41-1l1-.59c.09.17.21.46.48,1.12,1.06,2.64,3.89,9.65,8.43,14.69C140.2,141.79,153.48,169.91,151.28,193.09Z"
                  transform="translate(-19.23 -20.8)" style="fill:url(#linear-gradient-4)"/>
            <rect x="119.93" y="29.36" width="358.29" height="133.03" rx="13.99"
                  style="fill:#f5f5f5;mix-blend-mode:hard-light"/>
            <rect x="138.69" y="317.89" width="134.33" height="4.49" style="fill:#fff"/>
            <rect x="138.69" y="296.92" width="99.76" height="4.49" style="fill:url(#linear-gradient-5)"/>
            <rect x="138.69" y="307.4" width="107.8" height="4.49" style="fill:url(#linear-gradient-6)"/>
            <rect x="138.69" y="317.89" width="69.95" height="4.49" style="fill:url(#linear-gradient-7)"/>
            <rect x="56.5" y="169.59" width="225.15" height="206.17" rx="10.38"
                  style="fill:#f5f5f5;mix-blend-mode:hard-light"/>
            <path d="M159.18,252.84A31.63,31.63,0,0,0,142,213.14c-.64-.28-1.3-.54-2-.78a31.67,31.67,0,1,0,19.16,40.48Zm-37.82,11.7a23.77,23.77,0,0,1-15.75-23.07,24,24,0,0,1,1.38-7.29,23.75,23.75,0,0,1,30.36-14.36c.5.18,1,.38,1.48.59a23.74,23.74,0,0,1-17.47,44.13Z"
                  transform="translate(-19.23 -20.8)" style="fill:#78c3ff"/>
            <path d="M122.28,219.51,119.91,212a31.7,31.7,0,0,0-22.22,29.28l7.92.24a24,24,0,0,1,1.38-7.29A23.72,23.72,0,0,1,122.28,219.51Z"
                  transform="translate(-19.23 -20.8)" style="fill:#1173c2"/>
            <path d="M138.83,220.41l3.16-7.27c-.64-.28-1.3-.54-2-.78a31.53,31.53,0,0,0-20.11-.41l2.37,7.56a23.75,23.75,0,0,1,15.07.31C137.85,220,138.35,220.2,138.83,220.41Z"
                  transform="translate(-19.23 -20.8)" style="fill:#1487e3"/>
            <path d="M149.88,218.05a31.65,31.65,0,0,0-7.89-4.91l-3.16,7.27a23.62,23.62,0,0,1,5.91,3.68Z"
                  transform="translate(-19.23 -20.8)" style="fill:#4aafff"/>
            <rect x="229.75" y="296.34" width="10.99" height="37.65" style="fill:#4aafff"/>
            <rect x="213.41" y="306.9" width="10.99" height="27.09" style="fill:#4aafff"/>
            <rect x="245.61" y="278.89" width="10.99" height="55.1" style="fill:#4aafff"/>
            <polygon
                    points="254.82 251.37 254.63 250.18 225.63 254.93 216.22 274.97 184.95 277.09 174.82 292.04 150.91 291.44 150.88 292.65 175.44 293.26 185.62 278.25 217.01 276.12 226.45 256.01 254.82 251.37"
                    style="fill:#4aafff"/>
            <path d="M238.61,222h31.26a3.57,3.57,0,0,0,3.57-3.57h0a3.57,3.57,0,0,0-3.57-3.58H238.61a3.57,3.57,0,0,0-3.57,3.58h0A3.57,3.57,0,0,0,238.61,222Z"
                  transform="translate(-19.23 -20.8)" style="fill:#1487e3"/>
            <path d="M238.61,234.47h31.26a3.57,3.57,0,0,0,3.57-3.58h0a3.57,3.57,0,0,0-3.57-3.57H238.61a3.57,3.57,0,0,0-3.57,3.57h0A3.57,3.57,0,0,0,238.61,234.47Z"
                  transform="translate(-19.23 -20.8)" style="fill:#4aafff"/>
            <path d="M238.61,246.93h31.26a3.57,3.57,0,0,0,3.57-3.57h0a3.57,3.57,0,0,0-3.57-3.57H238.61a3.57,3.57,0,0,0-3.57,3.57h0A3.57,3.57,0,0,0,238.61,246.93Z"
                  transform="translate(-19.23 -20.8)" style="fill:#4aafff"/>
            <polygon
                    points="162.8 207.38 144.92 207.38 144.92 206.69 162.51 206.69 171.93 197.28 183.45 197.28 183.45 197.97 172.21 197.97 162.8 207.38"
                    style="fill:#4aafff"/>
            <polygon
                    points="179.74 238.61 156.73 238.61 149.28 231.15 149.76 230.67 157.02 237.92 179.74 237.92 179.74 238.61"
                    style="fill:#4aafff"/>
            <rect x="173.63" y="201.82" width="23.85" height="2.93" style="fill:#1487e3"/>
            <rect x="166.35" y="231.66" width="19.2" height="2.93" style="fill:#1487e3"/>
            <path d="M25.32,266.48c6-2.87,12,16.25,12,16.25,10.21,13.5,24.48-4.45,23.08,15.72C58,333.74,101,309.55,81.15,346.4S98.7,367.23,86.35,397,90,462.1,71.43,447.53c0,0-16.36-35.87-33.23-47S48.3,376.29,43,361.22c-7.67-21.9-26.14-21-12.83-44.57S4.9,276.25,25.32,266.48Z"
                  transform="translate(-19.23 -20.8)" style="fill:url(#linear-gradient-8)"/>
            <path d="M77.31,434c-8-5.66-17.48-45.13-18-68.64-.29-12-3.85-17.06-7-21.48-3-4.23-5.59-7.89-4.08-16.28,2.88-16-4.71-22.95-4.78-23l.88-1c.33.29,8.24,7.43,5.21,24.26-1.41,7.84.91,11.12,3.86,15.27,3.09,4.35,6.93,9.77,7.23,22.22.6,25.23,10.24,62.49,17.48,67.58Z"
                  transform="translate(-19.23 -20.8)" style="fill:#fff"/>
            <path d="M80.32,437a17.11,17.11,0,0,1-3.4-.37c-3.11-.63-5.14-2.26-6-4.87-2.17-6.21,2.86-16.29,6.94-21.15a31.07,31.07,0,0,0,6.17-20c-.12-1.94-.32-3.74-.5-5.32-.51-4.58-.88-7.89,1.08-10.1,1.74-1.95,5.09-2.8,11.2-2.82,10.71-.05,14.95-4.49,18.36-8.06a19.49,19.49,0,0,1,4.47-3.85h0c5.34-2.91,11-3.34,13.45-1,1.17,1.11,2.15,3.27.22,7.31a28.07,28.07,0,0,1-5.89,7.89c-2.47,2.53-4.11,4.2-3.26,7.52.2.78.43,1.57.66,2.36,1.66,5.65,3.53,12.06-6.14,16.4-2.06.92-3.93,1.66-5.58,2.31-6.75,2.65-10.82,4.25-15.42,14-.89,1.88-1.68,3.66-2.44,5.38C90.56,430.74,87.82,437,80.32,437Zm38.91-75.38a18.21,18.21,0,0,0-4.15,3.6c-3.58,3.75-8,8.42-19.32,8.47-5.62,0-8.76.76-10.2,2.37-1.57,1.77-1.23,4.83-.76,9.07.18,1.6.39,3.41.51,5.38a31.73,31.73,0,0,1-6.48,20.95c-4,4.81-8.62,14.39-6.7,19.86.74,2.13,2.44,3.48,5.05,4,9.11,1.85,11.63-3.85,15.79-13.3.77-1.73,1.56-3.52,2.45-5.41,4.83-10.19,9.33-12,16.15-14.63,1.63-.65,3.49-1.37,5.51-2.28,8.62-3.87,7.06-9.19,5.42-14.82-.24-.8-.47-1.6-.68-2.4-1-4.05,1-6.14,3.6-8.78a26.74,26.74,0,0,0,5.64-7.54c.87-1.83,1.6-4.31.07-5.76-2-1.91-7.13-1.38-11.9,1.22Z"
                  transform="translate(-19.23 -20.8)" style="fill:url(#linear-gradient-9)"/>
            <path d="M77.06,444.65l-1.33-.07c.07-1.25,1.74-30.71,13.57-39.33,13-9.45,17.07-19.62,19-26.44,2.3-8,14-10.19,14.48-10.27l.23,1.31c-.11,0-11.36,2.09-13.42,9.33-2,7-6.21,17.45-19.51,27.15C78.77,414.58,77.08,444.35,77.06,444.65Z"
                  transform="translate(-19.23 -20.8)" style="fill:url(#linear-gradient-10)"/>
            <path d="M104.1,296.21c-8.4-2.89-6.66,13.31-10.21,25.3s-39.51,5.23-24.42,35.25-19.09,10-8.88,36.23.89,54.21,12,47.09,6.24-40.12,17.78-44,13.43-8.5,2-19.15,29.94-21.23,19.73-42.75S113.81,299.54,104.1,296.21Z"
                  transform="translate(-19.23 -20.8)" style="fill:url(#linear-gradient-11)"/>
            <path d="M77.73,438.82c-1.06-4.48-10.08-43.95-1.66-48.72,7.42-4.2,7.24-20.55,6.08-36-1-13.66,16.53-20.05,17.28-20.32l.44,1.26c-.17.06-17.34,6.31-16.39,19,1.19,15.85,1.32,32.68-6.76,37.25-6.39,3.63-.5,35.34,2.31,47.26Z"
                  transform="translate(-19.23 -20.8)" style="fill:#fff"/>
            <polygon points="77.61 403.97 65.6 449.5 38.78 449.5 26.78 403.97 77.61 403.97"
                     style="fill:url(#linear-gradient-12)"/>
            <path d="M96.84,424.77s-26.42,5-26.42,45.53H58L46,424.77Z" transform="translate(-19.23 -20.8)"
                  style="fill:url(#linear-gradient-13)"/>
            <polygon points="150.17 11.25 150.17 15.11 112.53 15.11 112.53 52.75 108.66 52.75 108.66 11.25 150.17 11.25"
                     style="fill:#b8d6ff"/>
            <rect x="460.22" width="30.64" height="2.15" style="fill:#b8d6ff"/>
            <rect x="460.22" y="4.05" width="30.64" height="9.03" style="fill:#b8d6ff"/>
            <rect x="439.21" y="7.48" width="18.07" height="1.35" style="fill:#b8d6ff"/>
            <rect x="439.21" y="9.42" width="18.07" height="3.66" style="fill:#b8d6ff"/>
            <rect x="490.18" width="1.35" height="25.3" style="fill:#b8d6ff"/>
            <rect x="114.85" y="344.82" width="37.81" height="2.24" style="fill:#e2d2ca"/>
            <rect x="139.15" y="373.71" width="3.31" height="102.07" transform="translate(262.38 828.68) rotate(180)"
                  style="fill:#706865"/>
            <rect x="146.74" y="344.18" width="26.28" height="3.21" style="fill:#ccbdb7"/>
            <rect x="154.91" y="316.83" width="9.95" height="30.23" style="fill:#998e89"/>
            <rect x="101.29" y="347.1" width="145.62" height="5.8" style="fill:#b59074"/>
            <path d="M92.57,332.77s-1.59,22.34,2.77,25c2.74,1.68,13.64,7.32,13.31,8.38s-6.15,9.43-6.15,9.43S81.56,361.8,80.89,357.45s1-32.7,3.91-34c2.15-1,3.29-.17,6,1.85C94.62,328.12,92.57,332.77,92.57,332.77Z"
                  transform="translate(-19.23 -20.8)" style="fill:#ffb555"/>
            <path d="M118.33,461.84s-.65,4.52-.73,5.2-7.24-.4-7.24-.4l-.58-5.38S117.44,461.21,118.33,461.84Z"
                  transform="translate(-19.23 -20.8)" style="fill:#424773"/>
            <path d="M117.68,466.47a19.47,19.47,0,0,0,4.46,3.91c2.2,1.18,5.64,1.65,6.94,2.88.94.89,3.41,4.71-5.7,4.63s-13.51.54-14.49-.93,1.42-10.8,1.42-10.8S112.46,466.94,117.68,466.47Z"
                  transform="translate(-19.23 -20.8)" style="fill:#292c47"/>
            <path d="M164.21,461.89s-.65,4.51-.73,5.19-7.24-.4-7.24-.4l-.58-5.38S163.32,461.25,164.21,461.89Z"
                  transform="translate(-19.23 -20.8)" style="fill:#424773"/>
            <path d="M163.56,466.51a19.47,19.47,0,0,0,4.46,3.91c2.2,1.18,10.27,2.16,11.57,3.39.94.89,2.49,4.46-10.33,4.12-9.11-.23-13.51.54-14.49-.92s1.42-10.81,1.42-10.81S158.22,467,163.56,466.51Z"
                  transform="translate(-19.23 -20.8)" style="fill:#292c47"/>
            <path d="M95.24,383.78s26,4.41,31.91,5.33,37.77,8.86,41.75,11.27c3.18,1.93-1.66,48.15-2.79,65.78H153.55l-.91-52.89c-15.07.37-25.82-3.53-36.8-1.86s-20.12,4-27.1-5.32C88.74,406.09,88.49,385.83,95.24,383.78Z"
                  transform="translate(-19.23 -20.8)" style="fill:#292c47"/>
            <path d="M120.9,466.2l-12.24-.75-1.19-52.18a74.32,74.32,0,0,1-14-.89l-9.88-23c8.66,1.73,36.41,8.73,40.11,11C126.9,402.31,122,448.57,120.9,466.2Z"
                  transform="translate(-19.23 -20.8)" style="fill:#292c47"/>
            <path d="M107.22,286.19s9.54-2.64,13.19,4.77,2,21.46-2.82,22.78-11.73-.2-13.73-4.81-3.59-11.17-3.11-15.41S104.69,287.2,107.22,286.19Z"
                  transform="translate(-19.23 -20.8)" style="fill:#eea886"/>
            <path d="M115.09,312.26s-.1,5.63.52,6.84-13.29.9-13.29.9,2.19-6.77,1-12.53S115.09,312.26,115.09,312.26Z"
                  transform="translate(-19.23 -20.8)" style="fill:#eea886"/>
            <path d="M102.52,305.33s.74,1.51,4.34,1.27,8.35-4.59,9.88-5,1.62-1.25,1.62-1.25l.81,1.43,1.56.24s-1.06-4.35,1.26-5.89-1-13.88-12.79-10.9c0,0-9,1.64-9.08,6.65S100.78,302.68,102.52,305.33Z"
                  transform="translate(-19.23 -20.8)" style="fill:#3a3f47"/>
            <path d="M116.34,319s0-2.29-1.08-2.51-10.94-1.58-12.21-1.08l-.55,3S105,319.9,116.34,319Z"
                  transform="translate(-19.23 -20.8)" style="fill:#e2d2ca"/>
            <path d="M119.2,299.34c-.26-1.88-2.4-4-3.63-1.11s.83,7.19,2.2,7S119.56,301.89,119.2,299.34Z"
                  transform="translate(-19.23 -20.8)" style="fill:#eea886"/>
            <path d="M157.78,346.07h0C157.84,346.1,157.85,346.1,157.78,346.07Z" transform="translate(-19.23 -20.8)"
                  style="fill:#323657"/>
            <path d="M104.44,287.53s-11.64-.54-2,17.62Z" transform="translate(-19.23 -20.8)" style="fill:#3a3f47"/>
            <polygon points="59.27 451.59 60.14 454.03 96.72 442.69 94.96 437.76 59.27 451.59" style="fill:#918783"/>
            <rect x="93.81" y="401.19" width="4.16" height="39.77" style="fill:#918783"/>
            <rect x="83.63" y="399.08" width="24.52" height="2.34" style="fill:#5e5854"/>
            <polygon points="132.83 451.59 131.97 454.03 95.39 442.69 97 437.45 132.83 451.59" style="fill:#918783"/>
            <polygon points="107.06 453.76 107.06 456.6 95.39 442.69 97 437.45 107.06 453.76" style="fill:#918783"/>
            <path d="M155.48,475.78a3.42,3.42,0,1,1-3.41-3.42A3.42,3.42,0,0,1,155.48,475.78Z"
                  transform="translate(-19.23 -20.8)" style="fill:#bfb2ac"/>
            <path d="M126.59,475.78a3.42,3.42,0,1,1-3.42-3.42A3.42,3.42,0,0,1,126.59,475.78Z"
                  transform="translate(-19.23 -20.8)" style="fill:#bfb2ac"/>
            <path d="M81.93,475.78a3.42,3.42,0,1,1-3.42-3.42A3.42,3.42,0,0,1,81.93,475.78Z"
                  transform="translate(-19.23 -20.8)" style="fill:#bfb2ac"/>
            <path d="M70.32,390.2h51.46a3.32,3.32,0,0,1,3.32,3.32v2.24a3.31,3.31,0,0,1-3.31,3.31H70.32A3.32,3.32,0,0,1,67,395.76v-2.24A3.32,3.32,0,0,1,70.32,390.2Z"
                  style="fill:#e2d2ca"/>
            <rect x="224.96" y="352.9" width="3.31" height="102.07" style="fill:#706865"/>
            <rect x="116.91" y="270.77" width="85.94" height="60.62" rx="3.31" style="fill:#b8aba5"/>
            <rect x="120.28" y="274.05" width="79.21" height="47.85" style="fill:#f5f7ff"/>
            <path d="M215.2,347.21c0,1.36-1.43,2.46-3.19,2.46s-3.19-1.1-3.19-2.46,1.42-2.46,3.19-2.46S215.2,345.85,215.2,347.21Z"
                  transform="translate(-19.23 -20.8)" style="fill:#918681"/>
            <path d="M196.91,368V366.9s-1.52-6.71-12.25-6.71S174.15,368,174.15,368Z" transform="translate(-19.23 -20.8)"
                  style="fill:#998e89"/>
            <path d="M174,361.19a10.53,10.53,0,0,0,3.19-.7c.85-.51,6-3.95,7.16-3.4s9.18,3,8.91,4.16-1,1.06-1.58.85-6.36-1.42-6.88-1.21c0,0,5.7,2.07,5.72,3.59s-1.19,1.89-1.73,2.46-1.19,2-2.66,2.1-8.63-2.38-10.1-2.49-4.2.09-4.39-.15S174,361.19,174,361.19Z"
                  transform="translate(-19.23 -20.8)" style="fill:#eea886"/>
            <path d="M131.59,322.13c-7.43-1.3-15.25-3.18-15.25-3.18l-13.84-.56s-12.7,2.79-17.7,5.05c-.48.22-.48,11.33-1.78,14.25l4.15,8.75s2.39,17.33,2.89,25c.23,3.54-.65,34.2-.65,34.2s1.25.61,10.69,1.65,33.05-.38,33.19-1.49-4.57-41.54-4.77-43.64c-.33-3.21.92-18.06.92-18.06,1.78,2.39,6.32,13.19,11.05,18.33,2.78,3,16.55,4.87,19.15,5,5.65.18,16,1.31,16.26.76.24-.33.9-9.15.25-9.37s-19.71-1.29-24.61-3.89c-1.79-.95-7.16-12.65-7.16-12.65S135.69,324,131.59,322.13Z"
                  transform="translate(-19.23 -20.8)" style="fill:#ffb555"/>
            <rect x="53.44" y="328.5" width="40.06" height="55.48" rx="6.37" style="fill:#e2d2ca"/>
            <path d="M105.63,417.67c-5.9,0-10.69-2-14.24-5.89-8-8.85-6.56-24.39-6.5-25a2.23,2.23,0,0,1,4.44.43c0,.18-1.3,14.27,5.38,21.62,2.7,3,6.27,4.42,10.92,4.42a2.23,2.23,0,0,1,0,4.46Z"
                  transform="translate(-19.23 -20.8)" style="fill:#e2d2ca"/>
            <rect x="125.9" y="277.86" width="23.2" height="2.53" rx="0.47" style="fill:#dfe1e8"/>
            <rect x="125.9" y="283.28" width="23.2" height="2.53" rx="0.47" style="fill:#dfe1e8"/>
            <rect x="125.9" y="289.5" width="23.2" height="28.59" rx="1.59" style="fill:#dfe1e8"/>
            <rect x="153.78" y="277.86" width="41.32" height="40.23" rx="2.52" style="fill:#dfe1e8"/>
            <path d="M246.1,104.2a46.53,46.53,0,0,0-87.63,31.33c.36,1,.74,2,1.15,2.91A46.53,46.53,0,0,0,246.1,104.2ZM214,152.72a34.91,34.91,0,0,1-38.33-10.24,34.45,34.45,0,0,1-5.41-8.69c-.31-.71-.6-1.44-.86-2.18A34.89,34.89,0,1,1,214,152.72Z"
                  transform="translate(-19.23 -20.8)" style="fill:#4aafff"/>
            <path d="M169,109.47,157.87,106a46.6,46.6,0,0,1,43-32.66L201.25,85A35,35,0,0,0,169,109.47Z"
                  transform="translate(-19.23 -20.8)" style="fill:#1a598c"/>
            <path d="M170.3,133.79l-10.68,4.65c-.41-.95-.79-1.92-1.15-2.91a46.3,46.3,0,0,1-.6-29.53L169,109.47a34.67,34.67,0,0,0,.45,22.14C169.7,132.35,170,133.08,170.3,133.79Z"
                  transform="translate(-19.23 -20.8)" style="fill:#2273b5"/>
            <path d="M166.83,150a46.26,46.26,0,0,1-7.21-11.58l10.68-4.65a34.45,34.45,0,0,0,5.41,8.69Z"
                  transform="translate(-19.23 -20.8)" style="fill:#3788cc"/>
            <rect x="245.27" y="86.24" width="8.24" height="58.69" style="fill:#e0e0e0"/>
            <rect x="265.73" y="98.16" width="8.24" height="46.77" style="fill:#e0e0e0"/>
            <rect x="286.19" y="89.39" width="8.24" height="55.54" style="fill:#e0e0e0"/>
            <rect x="306.65" y="106.71" width="8.24" height="38.21" style="fill:#e0e0e0"/>
            <rect x="327.11" y="91.19" width="8.24" height="53.74" style="fill:#e0e0e0"/>
            <rect x="347.57" y="83.09" width="8.24" height="61.84" style="fill:#e0e0e0"/>
            <rect x="368.03" y="79.71" width="8.24" height="65.22" style="fill:#e0e0e0"/>
            <rect x="245.27" y="108.11" width="8.24" height="36.82" style="fill:#ff6559"/>
            <rect x="265.73" y="115.59" width="8.24" height="29.34" style="fill:#ff6559"/>
            <rect x="286.19" y="110.08" width="8.24" height="34.85" style="fill:#ff6559"/>
            <rect x="306.65" y="120.95" width="8.24" height="23.98" style="fill:#ff6559"/>
            <rect x="327.11" y="111.21" width="8.24" height="33.72" style="fill:#ff6559"/>
            <rect x="347.57" y="106.13" width="8.24" height="38.8" style="fill:#ff6559"/>
            <rect x="368.03" y="104.01" width="8.24" height="40.91" style="fill:#ff6559"/>
            <rect x="390.6" y="86.24" width="8.24" height="58.69" style="fill:#e0e0e0"/>
            <rect x="411.06" y="98.16" width="8.24" height="46.77" style="fill:#e0e0e0"/>
            <rect x="431.52" y="89.39" width="8.24" height="55.54" style="fill:#e0e0e0"/>
            <rect x="451.98" y="106.71" width="8.24" height="38.21" style="fill:#e0e0e0"/>
            <rect x="390.6" y="108.11" width="8.24" height="36.82" style="fill:#ff6559"/>
            <rect x="411.06" y="115.59" width="8.24" height="29.34" style="fill:#ff6559"/>
            <rect x="431.52" y="110.08" width="8.24" height="34.85" style="fill:#ff6559"/>
            <rect x="451.98" y="120.95" width="8.24" height="23.98" style="fill:#ff6559"/>
            <rect x="259.93" y="69.67" width="219.52" height="8.38" rx="2.05"
                  transform="translate(720.15 126.92) rotate(180)" style="fill:#4aafff"/>
            <rect x="259.93" y="84.29" width="219.52" height="8.38" rx="2.05"
                  transform="translate(720.15 156.17) rotate(180)" style="fill:#b8d6ff"/>
            <g style="mix-blend-mode:hard-light">
                <rect x="286.19" y="169.74" width="99.96" height="169.65" rx="6.53" style="fill:#f5f5f5"/>
            </g>
            <rect x="293.15" y="270.93" width="0.44" height="56.08" style="fill:#4aafff"/>
            <rect x="314.41" y="270.93" width="0.44" height="56.08" style="fill:#4aafff"/>
            <rect x="335.67" y="270.93" width="0.44" height="56.08" style="fill:#4aafff"/>
            <rect x="356.93" y="270.93" width="0.44" height="56.08" style="fill:#4aafff"/>
            <rect x="378.19" y="270.93" width="0.44" height="56.08" style="fill:#4aafff"/>
            <path d="M312.6,325.08s8.67,7.29,17-1.35,18-11.53,26.57-4.25,11.86-2.71,20.39-10.9,8.4-12.84,21-12.84v52.07h-85Z"
                  transform="translate(-19.23 -20.8)" style="fill:url(#linear-gradient-14)"/>
            <rect x="314.63" y="266.26" width="5.28" height="2.04" style="fill:#4aafff"/>
            <rect x="293.15" y="266.26" width="7.19" height="2.04" style="fill:#4aafff"/>
            <rect x="335.89" y="266.26" width="6.51" height="2.04" style="fill:#4aafff"/>
            <rect x="356.93" y="266.26" width="6.51" height="2.04" style="fill:#4aafff"/>
            <rect x="371.9" y="266.26" width="6.51" height="2.04" style="fill:#4aafff"/>
            <rect x="346.26" y="229.39" width="28.43" height="3.59" style="fill:url(#linear-gradient-15)"/>
            <rect x="346.26" y="244.46" width="26.1" height="3.6" style="fill:url(#linear-gradient-16)"/>
            <rect x="346.26" y="236.93" width="22.58" height="3.6" style="fill:url(#linear-gradient-17)"/>
            <path d="M340,245.06a5,5,0,1,1-5-5A5,5,0,0,1,340,245.06Z" transform="translate(-19.23 -20.8)"
                  style="fill:#4aafff"/>
            <path d="M344,261.26v9.45a21.79,21.79,0,0,1-18,0v-9.45a9,9,0,0,1,18,0Z" transform="translate(-19.23 -20.8)"
                  style="fill:#4aafff"/>
            <path d="M335,273.25a22.12,22.12,0,0,1-9.25-2,22.4,22.4,0,1,1,18.51,0A22.1,22.1,0,0,1,335,273.25Zm0-43.6a21.21,21.21,0,1,0,21.22,21.21A21.23,21.23,0,0,0,335,229.65Z"
                  transform="translate(-19.23 -20.8)" style="fill:url(#linear-gradient-18)"/>
            <path d="M379.42,241.4A13.53,13.53,0,1,1,393,227.87,13.55,13.55,0,0,1,379.42,241.4Zm0-24.35a10.82,10.82,0,1,0,10.82,10.82A10.83,10.83,0,0,0,379.42,217.05Z"
                  transform="translate(-19.23 -20.8)" style="fill:#4aafff"/>
            <rect x="314.75" y="180.1" width="20.39" height="3.25" style="fill:#4aafff"/>
            <rect x="317.75" y="188.48" width="17.38" height="3.25" style="fill:#4aafff"/>
            <rect x="307.19" y="196.86" width="27.94" height="3.25" style="fill:#4aafff"/>
            <g style="mix-blend-mode:hard-light">
                <rect x="392.48" y="169.39" width="67.74" height="48.29" rx="1.65" style="fill:#f5f5f5"/>
            </g>
            <rect x="397.95" y="182.13" width="23.64" height="3.44" rx="0.92" style="fill:url(#linear-gradient-19)"/>
            <path d="M398.77,174.34h16.89a.82.82,0,0,1,.82.82V177a.82.82,0,0,1-.82.82H398.77A.81.81,0,0,1,398,177v-1.81A.81.81,0,0,1,398.77,174.34Z"
                  style="fill:url(#linear-gradient-20)"/>
            <polygon
                    points="397.95 211.01 411.65 197.32 415.75 201.41 430.78 186.38 437.45 193.05 454.91 175.59 454.91 211.01 397.95 211.01"
                    style="fill:#4aafff"/>
            <polygon
                    points="454.75 211.01 454.75 183.85 436.74 201.85 430.3 195.41 419.55 206.16 411.4 202.92 397.95 211.01 454.75 211.01"
                    style="fill:#278cdd"/>
            <path d="M433.09,468.28s-5,7.09-4.35,8.22,6,1.28,9.23,0,3.31-9.6,4.77-13.17c.61-1.5-.7-5.91-2.54-6.23a7.46,7.46,0,0,0-3.84.62S438.27,462.75,433.09,468.28Z"
                  transform="translate(-19.23 -20.8)" style="fill:#363a5e"/>
            <path d="M436.32,457.66a34.87,34.87,0,0,0-1.45,5.9c-.32,2.4-3.59,7.47-3.44,8.12s4.31,1.22,6-.43,2.78-6.48,3.16-9.36a23.34,23.34,0,0,1,.78-4S437.94,455.9,436.32,457.66Z"
                  transform="translate(-19.23 -20.8)" style="fill:#eea886"/>
            <path d="M477,468.4s-4.87,7-4.18,8.1,6,1.28,9.24,0,3.31-9.6,4.77-13.17c.61-1.5-.7-5.91-2.54-6.23a8,8,0,0,0-4,.69S482.21,462.87,477,468.4Z"
                  transform="translate(-19.23 -20.8)" style="fill:#363a5e"/>
            <path d="M480.33,457.79a50.88,50.88,0,0,1-1,5.62c-.62,2.33-3.93,7.62-3.77,8.27s4.31,1.22,6-.43,3-6.45,3.16-9.36a16.08,16.08,0,0,0-.39-4.79S481.94,456,480.33,457.79Z"
                  transform="translate(-19.23 -20.8)" style="fill:#eea886"/>
            <path d="M456,342.31s-4.33,21-5.33,26.33-3.78,30.94-4.08,35.3-4.52,20.8-4.32,22.35S436,459.14,436,459.14a3.75,3.75,0,0,0,4.53.16c1.2-.86,14.17-29.29,14.17-37.07,0-10.77,7.63-24.82,8.61-27.23,9.15-22.37,7.35-29.21,8.54-30.66s1.3.9,2,4.11S476.05,399.5,477,403s.2,15.47.7,21.49,2.68,33.27,2.68,33.27,1.69,2.76,4.06.07c.51-.58,4.1-30.35,4.2-37.51s.21-17.05.4-20.14c1.84-29.69,6.37-33.93-.76-54.94C474.87,305.92,456,342.31,456,342.31Z"
                  transform="translate(-19.23 -20.8)" style="fill:#eea886"/>
            <path d="M485.1,336.44s12.35,18,7,56.37c0,0-29.27,4.15-45-4.81,0,0,6.49-39.53,8.84-45.69S485.1,336.44,485.1,336.44Z"
                  transform="translate(-19.23 -20.8)" style="fill:#3f446e"/>
            <polygon points="423.64 441.9 423.64 449.33 422.72 449.33 422.72 443.59 423.64 441.9" style="fill:#363a5e"/>
            <polygon points="467.77 441.9 467.77 449.33 466.85 449.33 466.85 443.59 467.77 441.9" style="fill:#363a5e"/>
            <path d="M470.47,256.5s-8.26,8.33-5.45,19.05,7.34,10.79,12.32,6.17,7.93-9.46,8.58-14.85S478,249.08,470.47,256.5Z"
                  transform="translate(-19.23 -20.8)" style="fill:#eea886"/>
            <path d="M468.85,292.26a48.3,48.3,0,0,0,2.09-6c.15-.55.29-1.12.41-1.69a11,11,0,0,0,.14-5.28c-1.32-3.9,8.27-1.2,8.27-1.2s-1.86,10.3,0,13.77S468.85,292.26,468.85,292.26Z"
                  transform="translate(-19.23 -20.8)" style="fill:#eea886"/>
            <path d="M493.14,297.17c-1.51-3-2.63-4-5.55-4.9-1.63-.51-8.92-2.41-8.92-2.41l-8.76-.32a77.72,77.72,0,0,0-10.69,2.62c-4.67,1.62-10.79,10.47-10.79,10.47s8.44,19.82,10.06,25.51.54,14.5.54,14.5c10.12,5.51,26.36-.54,26.36-.54a32.47,32.47,0,0,1-.64-13.32c.08-.43.16-.85.26-1.24s.2-.86.34-1.43a.14.14,0,0,0,0-.07c6.44.66,12.48.93,12.64-.36C498.72,319.86,495.22,301.31,493.14,297.17Zm-4.46,22.61c-.26,0-.81,0-1.39-.09.71-2,1.51-3.77,1.51-3.77C489.26,317.2,491,320.13,488.68,319.78Z"
                  transform="translate(-19.23 -20.8)" style="fill:#eddad3"/>
            <path d="M473.17,262.49s3.95,7.19,6.41,9.77,2.16,4.62,2.16,4.62,9.58-11.81,2.75-18.94-15.64-4.25-18.21,2-1.63,13.84-1.63,13.84S464.72,266.45,473.17,262.49Z"
                  transform="translate(-19.23 -20.8)" style="fill:#e8734d"/>
            <path d="M475.78,255s-1-5.26,7.29-7.36S495,255,494,260.83s-8.07,20.51-4.24,22.42,5.32-2.21,5.32-2.21-1.2,7.23-6.52,5.56-4.6-13.43-3.8-18.12S475.78,255,475.78,255Z"
                  transform="translate(-19.23 -20.8)" style="fill:#e8734d"/>
            <path d="M478.43,280.68a10.07,10.07,0,0,1-7.49,5.62c.15-.55.29-1.12.41-1.69C471.35,284.61,474.3,285.21,478.43,280.68Z"
                  transform="translate(-19.23 -20.8)" style="fill:#a77860"/>
            <path d="M488.68,316s-.39.83-1.47,4.11c-1.1-9.19-.53-14-.53-14A34.52,34.52,0,0,0,488.68,316Z"
                  transform="translate(-19.23 -20.8)" style="fill:#cfbeb8"/>
            <path d="M477.06,253.86s5.86,1.13,8.78,5.9c0,0-.59-4.32-3.51-5.57A7.51,7.51,0,0,0,477.06,253.86Z"
                  transform="translate(-19.23 -20.8)" style="fill:#eddad3"/>
            <path d="M485.35,326.11c-.14.57-.26,1.08-.34,1.43s-.18.81-.26,1.24c-3.63-2-6.23-3.51-6.23-3.51C479.49,325.49,485.35,326.11,485.35,326.11Z"
                  transform="translate(-19.23 -20.8)" style="fill:#cfbeb8"/>
            <path d="M479.16,290l-10.31,8.4,1.06-8.85S475.92,288.24,479.16,290Z" transform="translate(-19.23 -20.8)"
                  style="fill:#eea886"/>
            <polygon points="452.6 276.16 449.62 277.59 459.74 267.55 452.6 276.16" style="fill:#d6c5be"/>
            <path d="M486,325.39c-1.42,5.88,3.83,19.11,3.83,19.11l-10.4,3.25a2.66,2.66,0,0,1-3.4-2c-1.4-6.48-4.66-22.41-5.05-31.27-.5-11.3,7.73-24.64,7.73-24.64,14.63,2.51,10.62,24.64,10.62,24.64s-.53,1.39-1.24,3.57h0c-.18.55-.37,1.15-.57,1.78C487,321.49,486.44,323.39,486,325.39Z"
                  transform="translate(-19.23 -20.8)" style="fill:#494f80"/>
            <path d="M468.88,290l.18-.48s-7.49,1.14-11.3,3-11.1,11.72-11.1,11.72l9.54,12.59c0,9.67-1.56,26.87-1.56,26.87l4.36,2.51a1.77,1.77,0,0,0,2.66-1.5c.13-6.54.42-22.07.57-29.59.2-9.68,7.1-25.32,7.1-25.32Z"
                  transform="translate(-19.23 -20.8)" style="fill:#494f80"/>
            <path d="M455.3,335.37s7.19.28,8.3,0,8.58-3.51,9-6.71-17.33,2.87-17.33,2.87Z"
                  transform="translate(-19.23 -20.8)" style="fill:#eea886"/>
            <polygon points="458.37 304.59 429.19 301.17 442.37 311.89 458.37 304.59" style="fill:#6a77bf"/>
            <polygon points="442.37 311.89 458.37 306.44 458.37 304.59 441.83 309.89 442.37 311.89"
                     style="fill:#323657"/>
            <path d="M469.13,320a25.56,25.56,0,0,1-3.77-.27c-1-.21-3.64.08-4.31.67s-2.76,4.67-3.16,4.92.2.83.9.54c0,0,.64,1.79,2.23,1.12s2.66-2.14,3.49-2.39,5.66-1.56,5.66-1.56S470.37,319.6,469.13,320Z"
                  transform="translate(-19.23 -20.8)" style="fill:#eea886"/>
            <polygon points="451.23 267.1 445.68 275.9 443 277.59 449.25 268.83 451.23 267.1" style="fill:#fae6de"/>
            <polygon points="445.68 275.9 449.62 277.59 450.68 268.74 451.23 267.1 445.68 275.9" style="fill:#d6c5be"/>
            <path d="M456.18,331.26s-.31,3.71,0,4.49c0,0-18-1.8-19.67-4.31a10.84,10.84,0,0,1-1.62-5.57Z"
                  transform="translate(-19.23 -20.8)" style="fill:#494f80"/>
            <polygon points="442.37 311.89 433.87 280.27 401.52 276.85 410.38 305.97 442.37 311.89"
                     style="fill:#252740"/>
            <polygon points="459.74 267.55 452.6 276.16 456.51 279.65 460.73 269.34 459.74 267.55"
                     style="fill:#fae6de"/>
            <path d="M488.29,317.34l-.24.73c-.18.55-.37,1.15-.57,1.78-1.38.44-13.33-.44-13.33-.44S484.16,317.06,488.29,317.34Z"
                  transform="translate(-19.23 -20.8)" style="fill:#3d426b"/>
            <path d="M487.6,319.62c-1.93-.14-5.08-.35-7.66-.36-4,0-10.88.43-10.88.43l.82,4.29s12.16,2,18.8,2.44h0s8.77,1,9.42-.3-.22-9.71-1.64-17.27-2.89-11.93-4.64-14.26-10.95-4.16-10.95-4.16L488.68,316a10.72,10.72,0,0,1,1.07,3.27c0,.3-.23.44-.51.49l-1.22-.1Z"
                  transform="translate(-19.23 -20.8)" style="fill:#494f80"/>
        </g>
    </g>
</svg>