<svg xmlns="http://www.w3.org/2000/svg" viewBox="0 0 561.6 252.98">
    <g style="isolation:isolate">
        <g id="Layer_1" data-name="Layer 1">
            <path d="M67.7,42.69c.86,0,.85.2,1.7,0s3.57-1.08,4.38-1.2,1.18,0-.13.41-4,1.19-3.56,1.13,1.71-.36,3.54-.81,1.57-.26,2.27-.74l1-.73a21.18,21.18,0,0,0,1.71,1.62c.2.06.33,0,.56-.2s.66-.47,1-.38-.23.47-.05.52a4.2,4.2,0,0,0,1.29-.14c.73-.13.56-.43.56-.43a4.21,4.21,0,0,1,.72-.05,17,17,0,0,1,3.42.67c.6.17,2.64.31,3.17.44s.94-.22,1.61.06,1.09.64.37.83-2.35.34-1.62.46a15.86,15.86,0,0,0,3,.26c1.16,0,3.36-.29,4-.29s.89.25,1.16.88.62.88.83.93-.08-.3.21-.61a1.65,1.65,0,0,0,.31-1.13c0-.2.16-.3,0-.6s-.62-.24.36-.5a8,8,0,0,1,2.72-.55c1,.08.84.89,1.69,1s.9.27,2.37.35.88,0,2.53.08,1.13-.12,1.74-.66a1.91,1.91,0,0,1,1.43-.62c.4,0,1.76.14,1.7.26s-.91.69-.75,1a4.3,4.3,0,0,0,1.16.76,5.57,5.57,0,0,1,.08-.73c0-.07.18-.58.39-.68a4,4,0,0,0,2.14-.71c1-.76-.09-.72-.09-.72s-.39,0-.06-.3a4.47,4.47,0,0,1,1.54-.5s0,.14,0-.11-.78-.2-1.55-.23-1.27-.1-1.22-.51a8.56,8.56,0,0,1,.67-1.84c.27-.58.93-.38,1.22-.7a6.19,6.19,0,0,0,.8-2.2c0-.32.73-1,1-1.45s1-.25,1-.25.48-.58,1.58-.76a14.49,14.49,0,0,1,2.94,0,2.51,2.51,0,0,0-.81.38c-.64.37-.63,1-1.56,1.5a6.31,6.31,0,0,1-2.68.31s.21.79-.15,1a4.4,4.4,0,0,0-.74.77s1.49.27,1.29.89.56.74.49,1.32-1.28,1.08-1.11,1.17.21.13.8.15,1.35.09,1.35.09-.47.3-.31.62-.17.52-.28.87.08.63.25.57a8.61,8.61,0,0,0,1.51-1.33c.31-.39.51-.6.78-.6a1.73,1.73,0,0,1,1,.72c0,.19,0,.45-.77,1s-.81.77-.44,1a6.33,6.33,0,0,0,1.14.38c.72.25.57.23,1.12.14s.17-.9.23-.92,1.25-.1,1.16-.51-.27-.61.36-.81l1.07-.36a2.12,2.12,0,0,1-.28-.94c-.1-.67.53-.49,2-.42a4,4,0,0,1,2.1.64c.69.25.15.34.25.74s-.85.46-.85.46-.64.07-.63.39a3.14,3.14,0,0,0,.39,1.18c.24.49-.46.82-1.31,1.22a5.91,5.91,0,0,1-2.53.53c-.82,0-1.26.22-1.25.07s-.33-.28-.79-.21-1.58.31-1.26.39,1.26.06.68.52a1.92,1.92,0,0,1-1.68.4c-.76-.05-1.48-.05-2-.07l-2.9-.11a15.18,15.18,0,0,0,2.58.89,9.46,9.46,0,0,0,2.65.11s-.8.63-1.73,1.3-1.42.38-2,.43-1,.31-2,.4-3-.18-2.74-.09a2.16,2.16,0,0,0,.89.32,2.36,2.36,0,0,1,1.27.39c.38.27-.47.33-1.17.4a2.53,2.53,0,0,0-1.34.42l-2.55,1.64a5.65,5.65,0,0,0-1.53,1.52c-.45.65-1.67,1.44-1.36,1.6s1.74.19,2.24.44.62,1.45.88,1.91.46.82,1.14.45a3.67,3.67,0,0,1,2.52,0,10.22,10.22,0,0,1,2.88,1.52c.45.4,1.55.33,2.71.45s1.18.41,1.18.41,1.24,0,.58.4-.68,0-.4.62a2,2,0,0,1-.39,1.82c-.32.41,1.6.21,2.26.51s.2,1.56.66,1.4a3.25,3.25,0,0,0,1.43-.75,5.09,5.09,0,0,0,.42-1.33,3.51,3.51,0,0,0,.09-2c-.26-.4,1-.56.84-.74s.06-.51.89-.65.84,0,1.35-.23,1-1.23,1.18-1.59a2.58,2.58,0,0,0,.24-1.43,5.23,5.23,0,0,0-.67-1.41c-.19-.2-.52-.25.47-.87s.5-.49.46-.67a7,7,0,0,1,0-1.06c0-.42.65-.87.6-1.45s-.38-.46-.28-.58a13,13,0,0,1,3,0,11.63,11.63,0,0,0,2.16-.08,4.26,4.26,0,0,1,1.52.51c.59.3.89.22,1.12.58s.37.55,1.11.53a4.86,4.86,0,0,1,1.47.2,1.2,1.2,0,0,0-.73.84,6.88,6.88,0,0,1-.58,1.38c-.08.27.13.28.46.31s1.08.58,2,.8,1.17.16,1.66-.35.54-.47.94-.5.49,0,.69-.06-.18-.33,0-.68A4.35,4.35,0,0,1,148.77,53c.52-.26.66.26.89.74s1.05,2.07,1.26,2.59.71.56.09,1.05-.91.71-.26.94,1.17.62,1,1-.33.39-.12.49,1.18-.21,1.76,0a5.5,5.5,0,0,1,1.64.65c.36.3.29.4-.39.55a17.69,17.69,0,0,0-1.72.43c-.35.12-.93.37-1,.56s-.29.53.3.27a10.89,10.89,0,0,1,2.11-.62c.64-.12.16,0,.71-.06a6.28,6.28,0,0,1,1.72.31c.71.14.41.45.14.74s-.52.58-.32.9-.31.63-1.09,1a5.4,5.4,0,0,1-2.39.55,6.5,6.5,0,0,0-2.66,1,4.19,4.19,0,0,1-2.37.4c-1.11,0-.54-.37-.91-.29a8,8,0,0,1-1.6.38c-.73,0-3.11.07-4.08.25s-.83.6-1.18,1-.66.21-1.4.36a8.32,8.32,0,0,0-2.95,1.8,12.12,12.12,0,0,1-2.46,1.55,10,10,0,0,0,2.28-1A44.25,44.25,0,0,1,140,68.58a10.47,10.47,0,0,1,2.85-.76c.34.07,1.09.55,1,.79s-.42.43-1.21.85-1.51,0-1.51.17a1,1,0,0,0,.8.65c.47.08.31.5.24.71s-.45.48.49,1.15a3.73,3.73,0,0,0,2.61.68c.86,0,.34.2.7.18s.58-.49.81-.86a2.3,2.3,0,0,1,.9-.88c.36-.16.68-.46.6.11a2.41,2.41,0,0,1-1.27,1.53c-.5.17-.48.4-.53.57s-.57.19-1.92.65-1.79.58-2,.52a2.53,2.53,0,0,0-1.39.44,6.22,6.22,0,0,1-1.93.85c-.43,0-.76-.14,0-.56s1.12-1,1.77-1.2a3.7,3.7,0,0,1,1.4-.17c.49,0,.32-.2.77-.4s-.24-.14-.88-.22,0-.47,0-.47l-.76.25s-1.16.37-1.44.4-.26.15-.36.22a6.12,6.12,0,0,1-1.1.13,3.28,3.28,0,0,1-1.54.82c-.8.1-.26.06-.86.22s-.38-.18-.54-.08a5.3,5.3,0,0,1-1,.5A3.63,3.63,0,0,0,132.8,77a2.16,2.16,0,0,0-.57,1.77c-.09.19-.73-.11-1,0a5.7,5.7,0,0,1-1.63.71,13,13,0,0,0-2.45.59c-.38.22-.52.53-.83,1a15.6,15.6,0,0,1-1.49,1.55.53.53,0,0,0-.08-.76c-.42-.31-.23-.6-.23-.6a1.65,1.65,0,0,0-.25.88c0,.45.26.9-.1,1.39a3.94,3.94,0,0,1-1.43,1.29c-.49.17.22-.34.38-.74s-.12-.43-.23-.63.09-.7.67-1.38-.2-.26-.74.19-1.1,1.29-.76,1.83-.54.5-.47,1.29-.91,1.19-.8,1.32.63-.06.68.34-.49.21-.73.32-.2.26-.17.48.34.08.21.15a3.43,3.43,0,0,1-1.09.47c-.58.12-.55-.07-1,.21s-.77.52-1.24.84-.67.2-1.13.43-.67.4-1.23.68a17.72,17.72,0,0,0-2.53,1.25c-.78.55-.69.69-1.32,1.58s-.31,2.47-.3,4,.42,1.1.15,1.58a4.17,4.17,0,0,1-1.37,1.41c-.58.34-.6-.24-1.07-.58s.1-.57-.2-1.27a1.6,1.6,0,0,1,0-1.45,4.65,4.65,0,0,0,.24-1.78,1.14,1.14,0,0,0-1.58-1c-1.11.27-.8.14-1.29,0a5.39,5.39,0,0,0-2.59-.25c-.85.28-3-.09-3.5,0s-.88.11-1,.36-.33.28.45.45.57.36.39.63-.63-.14-.92-.24-.73.2-1.31.2-.51-.42-1-.47a4.72,4.72,0,0,1-1.16-.15,4.43,4.43,0,0,0-1.58-.35,29.19,29.19,0,0,0-4.69,1.72A10.79,10.79,0,0,0,86,97.92c-.48.48-.53.52,0,1.24s.18.6-.19,1-1.11.92-2.22,2a2.15,2.15,0,0,0-.77,2.65,5.61,5.61,0,0,0,1,2.26c.39.44.6.92,1,1.09a1.27,1.27,0,0,1,.68.42c.15.18,0,.26,1,.09a14.94,14.94,0,0,1,2.2-.42,2.08,2.08,0,0,1,1.33.25c.22.23.33.09.39,0a4.75,4.75,0,0,1,.66-.71,12.62,12.62,0,0,0,1.62-1.43c.33-.46.73-1.37,1.51-1.43a27.58,27.58,0,0,1,3.93-.27c1.42.07.54.62-.09,1.2s-.81.64-1,1.08,0,.45-.61.71-.1-.16-.41.11a5.64,5.64,0,0,1-1,.57c.11-.06.1.45,0,.7s-.23.37-.49,1-2.09,1.23-2.09,1.23a2.81,2.81,0,0,0,1.29.26,7.07,7.07,0,0,1,2.57.31c.74.32,2.64-.25,3.66.22s.48.76.38,1.21a13,13,0,0,1-.83,2.34c-.24.35-1.23,1.36-1.83,2.07s.37,1.25,1.25,1.84a7.08,7.08,0,0,0,2.28,1c.52.13,1.93-.69,3.85-.6s2.09,1.43,2.09,1.43a10.19,10.19,0,0,1,1.87-2c1.31-1.12,1.47-1.45,2.81-1.81s1.75-.42,3.88-.91a4.06,4.06,0,0,1,2.63-.06,30.7,30.7,0,0,1,5.45.78c2.16.55,5.71.72,6.94,1.18s1.45,1.74,2.55,2.8a38.59,38.59,0,0,0,3.23,2.55c.62.51,4.78,1,5.64,1.29a2.81,2.81,0,0,1,1.71,2.33c-.12.76.74,1.14,1.94,1.59s1.49,1,2,2.38.13,1.81,1.24,2.16,9,2.22,11,2.91,4.23,2.55,4.89,2.77,2-.18,2.52.07-.67,1.66-.16,2.67.54,1.08,0,1.83-2.69,2.58-3.55,3.5a10.1,10.1,0,0,1-3.35,1.88c-.9.39-1.54,0-1,.78s-.27,1.44-1.06,2.15-.09.63-.79,2.93S156.33,160,155.8,161s-1.83-.91-4.34,1.31-3.49,4-4.77,4.23a22,22,0,0,0-5.59,2.33,8.36,8.36,0,0,0-2.39,2.32c-.92,1.21-2.19,3.71-3.27,5.26s-2.42,2.45-5.5,4.57-4.84,4.35-7,6.07-1.61,1.35-2,1.68c-1.13.84-4.11-1.35-3.54-.14.43.89-.39,0,0,.85s.66,1.18-1.08,2.7-3.15,1.23-4.25,1.47-2.23-1-2.54-.38a6.39,6.39,0,0,1-2.32,2.57c-.93.39-3.29,1-3.32,1.22-.48,4.68,1.5,5.18-.69,5-6-.59-1.12-2-8.4,6.89-1.13,1.39-1.56.67-2,2.33s-1,2.94-.45,4-.06,1-2.08,2.45a20.48,20.48,0,0,0-4.26,3.46c-2.22,2.24-3.56,2.13-3.65,3.85s-.87,4.3-.89,6.9,2,2.18,4.21,4,3,.87,4.24,1.33-1.2.59-3.91,1.05-4.56,1-6.21.59-4.94-3-6-4.07-2.59-3-2.72-4.91,0-3.7-.11-6.19,1.2-4,3.66-9.28a109.67,109.67,0,0,1,5.92-11.79c1.69-2.64,8-14,9.67-16.87s8.24-13.85,9-15.54a50.37,50.37,0,0,1,2.4-4.59,26.84,26.84,0,0,0,1.94-5.07c.06-.16,0-.28-.06-1.79a2.88,2.88,0,0,0-1.67-2.74c-1-.64-2-1.44-2.74-2a8.11,8.11,0,0,1-2.19-2.48,14.75,14.75,0,0,1-.81-4.07,34,34,0,0,0-1.57-5.85,7,7,0,0,1-.86-4.12c0-2.06,1.54-2.1,2.29-3.25a26.39,26.39,0,0,1,3.75-3.85c1.62-1.57,3.12-2,4.43-3.4s.71-1.37.95-2.7.52-1.11.29-1.82-.14-1.56-.5-1.8a1.36,1.36,0,0,0-1.51,0c-.55.36-1.69,1.43-2.17,1.5s-.49-.34-.67-.57-1.47-.23-1.65-.47-.83-.26-1.21-.43a13.18,13.18,0,0,1-2.18-1.22,1.81,1.81,0,0,1-.28-2c.36-.84-.43-1.17-2-2.33s-2.37-1.31-4.66-1.79-2.67-1.84-3.33-2.22-.38-.78-2.28-.63A11.54,11.54,0,0,1,78,109.46c-1.17-.43-3.49-.74-4.27-1.27s-2.49-.71-2.63-2-.26-.76.59-1.85-.73-2-1.45-3-1.55-1.15-1.54-2.39-.94-1.17-1.69-2-.21-2-.19-2.93-2.52-2.34-2.52-2.34,0,1.6,0,2.25a13.61,13.61,0,0,0,.4,3.42c.37,1.19,1.09,1.49,1.38,2.69s-1,2-1.08,1.48-1.33-.68-1-1.24A1.82,1.82,0,0,0,64,98.92c-.05-.43-1.09-.93-1.94-1.69s-1.52-1.09-.73-1.09,1.62.54,1.6.2-.86-1.41-1.11-2.15a9.27,9.27,0,0,1,0-2.79c0-1.23-1.73-2.39-2.87-2.48s-1.22-.49-1.13-1.37a10.15,10.15,0,0,0,.41-2.47c-.13-.67-1.07-2.9-.62-3.75s1.24-3.25,2.81-4.59a16.11,16.11,0,0,0,3.28-4.8c.22-.57-.54-1.65-.29-2.07s.91-.17,1.45-.05,1.64.49,1.64.49a5.48,5.48,0,0,0-.62-1.7,5.91,5.91,0,0,0-2.55-1.11c-.73-.12-1.65-.32-1.79-.77a13.85,13.85,0,0,1-.31-1.43c-.07-.38-1.09-.83-1.14-1.23s.49-1.17.32-1.57-.63-.62-1.4-.46-.75-.23-.91-.81-1.15-.85-1.44-.92A1.93,1.93,0,0,1,56,59c.08-.25-.89-1.56-1.3-1.83s-5.32-1.47-5.46-1.47a18,18,0,0,1-2.28.06c-.38-.09-1.31-.93-2-1.1a2.8,2.8,0,0,0-2.2.75,24,24,0,0,1-4.5,1.94c-1.3.43-2.15.47-1.91.25a7.34,7.34,0,0,1,1.16-1.12,5,5,0,0,1,2.26-1c1.26-.33,1.23-.35.82-.33s-.67,0,.35-.35,1.38-.36,1.53-.62-2,.35-3.5.93a20.64,20.64,0,0,0-4.13,2c-1.7,1-.36.65-1.65,1.33s-5.1,2.08-6.3,2.61a52.4,52.4,0,0,1-7.1,2,14.43,14.43,0,0,0-3.21.78c-1,.37-2.75.49-2,.23s2.26-.84,3.19-1.12,3.22-.8,3.88-.94a22.91,22.91,0,0,0,3.93-1.36,35.36,35.36,0,0,0,3.12-1.78c.91-.54,1.21-.79,0-.57a6.47,6.47,0,0,1-2.73,0c-.46-.13-2.32.43-2.66.19s.62-.77.47-1-1.41-.09-2.07-.18-1.41-.47-.9-1.14.22-1.25,1-1.75a8.84,8.84,0,0,1,2.34-.92,20.45,20.45,0,0,1,3.33-.66A4.88,4.88,0,0,0,29,52.29c.48-.21,0-1,0-1l.81-.26c.56-.17.51-.54-.3-.47s-2.8.55-3.94.73-2.43.06-2.18-.22.6-.45.4-.66-.3-.45.14-.56,3.27-.9,3.27-.9a1.59,1.59,0,0,0,1.18.62,14.23,14.23,0,0,0,3.4-.95c-.81-.45-.46-.58-.46-.58a10.67,10.67,0,0,1-2.14-.19c-.3-.16-.19-.5-.08-.79s-1.52-.53-.66-1,1.91-.64,2.87-1.11a15.74,15.74,0,0,1,4.24-1.85c2.07-.49,4.47-.93,5.67-1.34a1.71,1.71,0,0,1,1.65,0c.3.06,2.55-.06,3.39-.06s.56.59.74.73,7.47.29,7.47.29,6.23.06,7.34.28,3,.82,3,.82C66.3,43.74,66.85,42.69,67.7,42.69ZM159.1,21a5.6,5.6,0,0,1-3.52,1.78c-2.47.38-7.18,1.48-7.4,1.55s-.05.85.39,1.25.92.66,1.3,1.06,1.33.36,1.91.77,1.16.28,3.14.3,1.42.1,3.62.18,4.49.18,5.13.58,1.27,2,1.69,3a24.56,24.56,0,0,1,1.15,2.76c0,.15-1.18,1.36-1.23,1.55s.26.53.56.8,0,.48-.12.74.16.9.21,1,1.27-.63,2-.75,2.08.71,1.92,1.28c-.35,1.3.35.86-3.54,2.41A3.44,3.44,0,0,0,165,43.73c.13.78.72,1.71,1.08,2.83s1.93,2.74,2.38,3.49.36,1.79,1.74,2,2.69.56,3.7.71,1.65.37,2.31-.26,2.21-3,3.43-4.69S180,45.67,182,45.3s5.18-1.12,6-1.34,1-1.83,2.92-2.36a33.32,33.32,0,0,1,3.91-.82A36.37,36.37,0,0,0,201.08,39c1.85-.75,2.27-.36,3-1s-.37-1.68-.35-2.68.7-1.05,1.17-2A3.53,3.53,0,0,1,207,31.26c1.39-.6,2.13-.93,2-1.49s-.72-1.38-.63-2,.26-.25-.15-1.08-.4-.94.2-1.71,1.88-.57,1.83-.91-2-.84-1.88-1.77a1.63,1.63,0,0,1,.87-1.42c.36-.23,3.83-1.72,4.08-1.86s0-.51,1.65-.95,2.21-.72,2.83-.86,1.57-.11-.24-.41a12,12,0,0,0-3.42-.36c-1.22.09-1.68.47-3.86.59a34.12,34.12,0,0,0-4.72.69s.79-.37.21-.72,1.87-1.5,2.27-1.64-2.88-.59-4.58-.77a57.46,57.46,0,0,0-7-.67c-2,.08-4.82.06-5.83.24s-1,.89-2.16.92-3.07-.36-4.68-.23-4.29.75-4.58.78.86.47,1.66.56a3.49,3.49,0,0,1,1.64,1.07s-2.12-.41-4.29-.77a20.66,20.66,0,0,0-5.85.16,27.68,27.68,0,0,1-4.12.48,20.21,20.21,0,0,0-5.41,1.32c-1.19.4-4.86,1.5-5.78,1.75s-.65.38.21.52S159.1,21,159.1,21ZM103.42,36.08c-.09.72-.62,1.74-1,1.3s-.47-1.33-1.68-1-2.28.26-2.06.18.22-.47-.24-.58a2.85,2.85,0,0,0-1.53.26c-.65.19-2.53.45-1.63.11s.76-.51.71-.9-2.19.27-3.38.68a20.36,20.36,0,0,0-2.93,1.48c-.82.43-.56.71.23.87s2.13.26.81.52-2.33.45-1.85.68a6.35,6.35,0,0,0,2.57.18,11.89,11.89,0,0,1,3.57,0,14.45,14.45,0,0,0,2.51.27,11.05,11.05,0,0,1-1.92.35c-1.18.12-3.15,0-4.26.12s-2.85.3-2.57.54a2.53,2.53,0,0,0,1.68.9,18.49,18.49,0,0,0,2.49.15c.79.13,0,.74.17.84a24.33,24.33,0,0,0,3.65-.27c1.74-.19,1.21-.36,2.6-.56s1.75-.81,2.56-.94.05.31.86.44.31.18,1.22.27.6.33,1.56.29a5.6,5.6,0,0,0,2.13-.5c-.11-.07-.16-.25.07-.51s-1,0-1.4.18-.17-.36.74-.6a5.17,5.17,0,0,1,2,0c.46,0,.45-.83-.32-1a10,10,0,0,1-2-.87c-1-.42-.29-.61-.38-1.16s-.06-2.15-.6-2.43-1.3-.21-1.84-.49A2.25,2.25,0,0,0,103.42,36.08ZM85.14,35c0,.51.23.19-.69.76s-.71.77-1.37,1.2S81,38,81.15,38.24s1.17.46,1.5.69.52.68,1.45.51a19.76,19.76,0,0,0,2-.47c.68-.19,1.29-.4,1.52-.86s.34-.68.56-.64.45.25.8,0a6.56,6.56,0,0,1,1.42-.92c.51-.23,1.76-.47,2.43-.74s1.73-.56,2.1-.79-.22-.41-.6-.51A3.22,3.22,0,0,0,92.65,34c-1,0-1.8.45-1.64.25s-.5-.3-.86-.39a4.73,4.73,0,0,0-2-.14,28.1,28.1,0,0,0-3,.31C84.15,34.14,85.15,34.48,85.14,35Zm26.57,6.28c-.2.12-.86.24-1.36.51s.73.12,1.06.2.51.31.78.38a9.64,9.64,0,0,0,2.66-.1c.76-.2.86-.27.84-.36a5.66,5.66,0,0,0-1.8-1.22c-.83-.32-.84-.34-1.09-.26A10.24,10.24,0,0,0,111.71,41.27Zm-1.37-6.14c-.71.19-1.27.41-.38.74a12.51,12.51,0,0,1,1.67.86c.58.27.5,1.06,2.16.7a5.85,5.85,0,0,0,2.82-1.13c.37-.36,0-.43-.21-.77s-.23-.47-1-.42-1,0-1,0a7.15,7.15,0,0,1,1.62-.63c.93-.24.32-.41.82-.63s-.81-.35-1.44-.26a7.26,7.26,0,0,1-1.56,0,6.09,6.09,0,0,0-2.78.7c0,.19.73.11,1.3.34s.79.21-.21.86-1-.15-1.15-.26S111.07,34.94,110.34,35.13ZM106.58,34c-1,.06-1.61.48-1.26.55s.67-.07,1.08.33a.84.84,0,0,0,1.42,0C108.4,34.15,108.18,33.87,106.58,34ZM93,29.13c-1.41.53-1.87.95-2.93,1.28s-1,.62-.85.81,1.17,0,1.65-.14,1-.43,1.12-.25,1.63-.63,2.19-.9a6.34,6.34,0,0,1,1.44-.54c.1,0-.56.32-.53.57s.83.28,1.79-.17.54-.85,1.28-1.19,1.18-.29.26-.6a2.87,2.87,0,0,0-2.1.2A15.33,15.33,0,0,0,93,29.13Zm6.32.83a9.7,9.7,0,0,0-2.15.35,5.83,5.83,0,0,0-2.5,1.37c-.46.39-.1.39.74.61a4,4,0,0,0,3-.6c.6-.54.63.13.3.4s.66,0,1.13-.1a12.57,12.57,0,0,1,1.8-.17,13,13,0,0,1-2.43.7c-1.17.21-2.09.32-2.39.35s.11.29,1.27.44,2.23-.45,4.22-.86,1.94-.47,2.47-.37a8.71,8.71,0,0,0,2.07-.28c.77-.1,1,.07,1.61-.57s1.5-1.24.52-1.28-1.05,0-1.54.64-.35.27-.35.27-.37-.6-.61-.91-.28-.78-.59-1-.7.11-1.63.56-.47.63.12.83.82.7.41.84a13.81,13.81,0,0,1-2,.06c-1.33.09-1.11-.23-1.41-.33s.77-.31-.42-.65A3.46,3.46,0,0,0,99.31,30Zm-4.48.65a13.56,13.56,0,0,0-2.48.9c-.43.26.16.21.73.2S94.1,31.09,94.83,30.61ZM99.25,29c-.52.13-.57.22.15.27s1.26-.15,1.2-.33S99.67,28.88,99.25,29Zm5-2.3a10.29,10.29,0,0,0-2.26.49.73.73,0,0,0-.15.71c.09.24.15.28,1.49.09s2.39-.57,2-.64a8.43,8.43,0,0,0-.91-.21c-.35,0,.39-.14,1.29-.29S107,26.41,104.27,26.67Zm-4.38.38c-.4.09-.53.09.11.26s1.43.15,1.4,0S101,26.78,99.89,27.05Zm3.48-1.19a3.4,3.4,0,0,0-1.31.57c-.21.11.83-.09,1.29-.15s.48.09,1-.12a9.74,9.74,0,0,1,2-.09c.79-.1,1.06-.38,1-.63S105.57,25.41,103.37,25.86ZM110.25,27c-.23.06-.26.25-.19.47s.13.17.46.26a2,2,0,0,1,.68.31c.07.06.11.08.38-.14s0-.18-.26-.48S110.86,26.8,110.25,27Zm1.59,1.91a2.55,2.55,0,0,0-1.19.16c-.24.07,0,.21,0,.47s-.15.35.68.39,1.13-.06,1.35-.38S112.33,28.94,111.84,28.86Zm3,.57a1.34,1.34,0,0,0-1.18-.28c-.59.13-.23.29-.27.38s.65,0,.56.19.07.3-.72.32a3.88,3.88,0,0,0-1.37.15c-.36.13.59,0,.76.19s.61.23,1.39.17l1.84-.17a9.56,9.56,0,0,0-1,.53c-.33.21-.57.52-.26.68s.52-.16,1.61-.17a3.11,3.11,0,0,0,1.58-.35s-.18-.15,0-.47.17-.39.17-.39a2.18,2.18,0,0,1,.41.26s0-.2,0-.54.14-.37.19-.84.13-.56-.68-.55-1.45.18-2.12.18-1,.07-.57.22.4.32.55.49-.08.57-.06.55S114.84,29.43,114.84,29.43Zm-5,1.77h0a1.19,1.19,0,0,0-.73.48c-.1.16.42.07,1.24-.09S111.06,31,109.89,31.2Zm11-.85a9.59,9.59,0,0,0-1.81.72c-.47.24-.17.27.63.55a3.26,3.26,0,0,0,2.34,0C122.59,31.37,122.64,29.85,120.85,30.35Zm5.26-2.14a4.54,4.54,0,0,1-2.13-.09,19.48,19.48,0,0,0-3.4-.29c-.46,0-.3.13,0,.59s.32.63,1.38.49,1.93-.25,2.38.37.75.83,0,1.06-.59.6-.45,1.09,1,.47,2.08.47,8.29-.07,9.45-.19a13,13,0,0,0,3.06-.93c.69-.26,1.16-.65.47-.93a7.36,7.36,0,0,0-2.62-.56c-.9,0-1.78.28-3.18.36s-1.27.48-2.51.49-.79.35-2.15,0-2.27-.84-1.53-.9,1.36-.12,1-.32A2.56,2.56,0,0,0,126.11,28.21Zm-12.4-3.35c.65.14.78.25-.09.37s-1.66.46-.82.4a12.55,12.55,0,0,1,2.46.14c1,.1.94,0,1.23.38s.79.34,1.55.24.87-.13.55-.42-.53-.84-1-1.06a3.32,3.32,0,0,0-1.54-.48c-.64,0-.79.05-1.12-.38s-.85-.22-1.7-.11a5.55,5.55,0,0,0-1.63.59C110.78,24.82,113.06,24.72,113.71,24.86Zm11.43-4.29c-1.12.6-2,1.11-1.11,1.17s1.39,0,1.38.13-.3.3-1.73.3-1.07.18-.53.73.71.36,1.94.34a15.4,15.4,0,0,1,2.7-.12c.94.15,1.18.3.2.45s-3.28.46-2.91.73a6.85,6.85,0,0,0,2.27,1,19,19,0,0,1,2.4-.17c1.45.1,1.05.19,1.32-.05s1.35-.86,1.61-1.08a3.18,3.18,0,0,1,1.59-.47c.86-.1,1.18-.25.48-.41s-1.53-.23-1.4-.35.76-.48.51-.67a3.83,3.83,0,0,0-1.15-.26c-.37-.1-.65-.54-1.1-.73a10.72,10.72,0,0,1-1.43-.5,4.27,4.27,0,0,0-2.54-.93A5.11,5.11,0,0,0,125.14,20.57Zm-4.06,5.14c-.38.09-1.21.11-.73.41s.29.31,1.15.13a12.38,12.38,0,0,0,2.33-.71c.15-.13-.61-.37-1.15-.48a17.82,17.82,0,0,0-2-.58C119.07,24.2,121.46,25.61,121.08,25.71Zm43.09-9a43,43,0,0,0-7.36-.51c-1.59.2-1.28-.44-3.45-.29s-5.38.07-6.43.16.37.33.85.53-2.54-.22-5.1.16-4.23.58-1.86,1.14a17.36,17.36,0,0,1,2.65.72s-3.19-.34-4.47-.65-.51-.29-3.34.13-5.48.66-5.56,1.11,1.67,1.07,2.93,1.24a23.15,23.15,0,0,0,4.42-.28,14,14,0,0,1-1.34.62s1.44-.16,3.09-.39,2.94-.48,4.52-.78a19,19,0,0,0,1.86-.39,41.4,41.4,0,0,1-4.89,1.51,35.44,35.44,0,0,1-5.4.67c-1.09,0-1.09.42-.14.74a9.39,9.39,0,0,1,1.94,1.27.61.61,0,0,1,.41.61,4.54,4.54,0,0,0-3.58,0c-2.21.78-2.12,1.18-1.68,1.28s2.07.19,2.23.52,2.63-.31,2.63-.31a6.41,6.41,0,0,1-2.49.82c-1.05,0-.78-.53-2.36-.44s-1.58.32-1.06.63,1,.41-.27.72-1.85.41-2.06.8,1.33.39,2.31.39,1.92-.05,3.71-.07a11.8,11.8,0,0,0,2.36-.37c.66,0,1.28.12.86.51s.2.15,2.32-.26,1.46-1,1.42-1.26-.73-.29-1.12-.41,1.78-1.18,1.65-1.53,2.17-.08,3.58-.9,1.23-1.44.5-1.58,1.45,0,2.23-.28a17.83,17.83,0,0,0,3.16-1c.76-.43,1-.6-.47-.5s2.24-.37,4.18-1,4.15-1.39,4.64-1.57.84-.09-1.19,0-4.36-.09-3-.18a39.83,39.83,0,0,0,6.51-.79C163.66,16.84,164.17,16.7,164.17,16.7ZM133.7,33.17c-2.2-.12-5.35-.45-6.53.71a48.73,48.73,0,0,0-3.71,4.31c-.31.5,2.23,1.24,4.19,1.29s5.16.13,4.63-.16.09-.44,1.92-.39,2.11-.24,2.21-.48.21.29,1.33.71,1.79,1.62,2.69,2.32,3.17,1.65,2.46,2.19-.33,2.48-4.57,2.92-4.36.14-4.54.73-.09.84,1.53.84,4.17-.84,4.7-.22a4,4,0,0,0,2.12,1c.62.14-.95.4-1.37.48s.76.17,2.85.89,4.91.8,3.69.28-1.56-1.45-2.08-1.76,0-.06,1,.11a5.68,5.68,0,0,1,2.24,1c.39.25.75-.09,1.41-1.08s.18-1-1.41-1.77-1.93-1.39-1.93-2,1.17-.65,1.77-1,1.56.69,2.24,1.32,1.07,1.75,2.05.94a11.71,11.71,0,0,0,2.33-3c.13-.41-.71,0-3.4-.9a25.68,25.68,0,0,0-4.36-1.26,10.25,10.25,0,0,1,2.34-.75c1.43-.4,2-.35-.25-2s-2.85-1.93-4.59-2-1.82-1.24-3-1.62-4.4.46-5.32.59-.72.33-1.43-.62S133.7,33.17,133.7,33.17Zm2,0c-1.16.08.14,1.32,1.57,1.37a12.31,12.31,0,0,0,3.16-.43A12,12,0,0,0,135.73,33.17Zm-10.6,13.14A9.27,9.27,0,0,0,123.66,48a4.1,4.1,0,0,1-.83,1c-.33.36.6-.06.88.47s0,.68,1.15.06a4.73,4.73,0,0,1,3.4-.57c1.15.25,2.07.36,1.84-.13s-.83-.45-1.42-1.1a3.68,3.68,0,0,0-2.12-1.07C125.6,46.46,125.83,45.67,125.13,46.31Zm-14,58.77c-.17-.7-.39-1.83-3-2.22a9.75,9.75,0,0,0-5,.65c-1.13.26.79.39,2.26,0s2.35-.09,2.46.09-.56.29-.71.1-.45.47.87.88,1.62.6,1.58,1.09a2,2,0,0,0,0,1.16c.18.41.24.59-.46.77s-.47.16-.1.38a5.53,5.53,0,0,0,2.47.67c1.28.09,1.64.28,1.08-.65A25.85,25.85,0,0,1,111.15,105.08Zm2.44,4.5c.52.58.06,1.21-.11,1.55s-.88.07-2.22-.22-1.18-.16-.11.37,1.94.41,1.61,1.12,1.15.06,1.84-.35.52,0,2.68.22,2.52.58,2.43-.19,1.29-.71-.45-1.44S113,108.92,113.59,109.58ZM107,110c-.55-.72-1.57-.82-1.82-.21s.05.58.77.75S107.39,110.47,107,110Zm15.21,3.17c-.84-.25-1.22.29-.76.75s1.46.29,2.41.26S123.71,113.61,122.24,113.18Zm16.23-70.84c-1.08.26-1.73.44-1.14,1.14s.94,1.15,1.46.63S140.29,41.9,138.47,42.34Zm-11,7.7c-1.59.16-2.1.19-2.08.73s.46.46,1.63.13S129.2,49.87,127.48,50Zm2.83.83a.52.52,0,0,0-.31.78c.2.35,1-.12,1.49-.53S131.34,50.69,130.31,50.87ZM124.7,26.63c-1.33,0-3.44.3-2.35.31s1.94.14,3.76.08,2-.13,2.28-.63S127.14,26.58,124.7,26.63Zm-6.22-4.18c-1.45.24-1.2.39.17.79s1.51.21,1.7-.54S119.32,22.31,118.48,22.45Zm89.84,21.08c-1.81.31-2.38.13-2.8.69s-1.07.26-1.48.33-1.22,1.66-1.47,1.43a3.57,3.57,0,0,1-.66-.92c-.33-.54.21-.44-.49-1a2.68,2.68,0,0,0-2.39-.28c-.15.24,1,.43.56.7s-1.46.59-1.86.78.68.11,1.37,0a1.35,1.35,0,0,1,1.3.61c.23.3-.4.58-.71.73s1,.11,1.46.16.72.33.31.7,1.51,0,2.54,0,1.24.45,2.83.14a14.34,14.34,0,0,0,3.83-1c1.48-.66,1.36-.5,2.34-.93s.77-.55.86-1,.6.13.46-.58-1.31-.5-2.1-.56-.72-.44-1.11-.57S210.16,43.22,208.32,43.53Zm140.87,76.31a2.75,2.75,0,0,0,.1,1.17c.17.6.28,1.25.51,1.85s.41,1,.87,1.17a1.73,1.73,0,0,0,1.4,0c.62-.26,1.13-.72.58-1.41a26.75,26.75,0,0,0-2-2.15C350.12,120,349.22,119.33,349.19,119.84Zm-.79-.81c.15.25.24.19.44.37s.32,0,0-.21-.26-.26-.26-.26-.28-.07-.22.14m82.42,38.76s0,0,0,.07c-.8,1.21-2.19.87-4.22,1.51s-5.27,2.79-5.15,3.74.48,1.09.13,1a6.77,6.77,0,0,1-1.12-.71,4,4,0,0,0,.47,2.22,20.12,20.12,0,0,1,2,3c.55,1.37.35,2.19.82,3.14s3,2.79,4,3.94a10.84,10.84,0,0,1,2.34,2.93c1.2,2.12,2.94,3.3,2.24,4.44s-1.7.92.31,2.12,3.6,2,5.62,1.2,1.07-1.48,2.75-1.85,1.87-.74,3.4-.83,2.71.05,2.79-1-.34-1,.88-1.73,1-.91,1.93-1.09,2,.5,2.86-.54-.2-1.12,2.92-1.12a19.78,19.78,0,0,1,6,.76,16.43,16.43,0,0,1,4.53,2,11,11,0,0,0,2.11,1.5c.21,0,.5,0,.87-.64a13.94,13.94,0,0,1,1.72-2s.68,1.45.51,2a2.39,2.39,0,0,0,.39,1.6c.14.28.73-.87.87-.91s1.41,2,1.67,2.2a5.32,5.32,0,0,1,1.49.69,16.83,16.83,0,0,1,2.81,2.24,11.4,11.4,0,0,0,5.2,2.54,11,11,0,0,0,3.34,0c.88-.14.31-1.23,1.57-.8s.7,1.32,3,1.13,2.5-.95,3.1-1.56,1.56.85,1.85-.75.71-1.22-.22-3.12-1.18-2.25-1.09-4,.87-.91.11-3.46-1.21-4.89-2.55-6.93a15.72,15.72,0,0,0-2.26-2.95c-1.86-2.24-1.35-2-3.52-2.91s-2.41-.67-3.59-2-.88-1.65-1.63-1.65-1.23.29-2.18-.58a12.61,12.61,0,0,0-2.42-2c-1.32-.81-2-.65-3.9-1.26s-1.18-.76-1.78-1.81a4.66,4.66,0,0,0-2.63-2.6c-1.47-.47-.33.26-1.3-1.42s-.82-1.43-1.95-1.71a4.64,4.64,0,0,1-2.62-1.26c-1.17-1-2.89-2.63-3.55-3.29s-.59.07-.71.56a4,4,0,0,0,.5,2.55c.55,1,1.39,1.57,2.14,2.92a4.34,4.34,0,0,1,.17,3.52c-.25.8-1.2.08-1.91-.13s-1.25-1-2.77-1.5-4.05-1-5.52-1.81-.77-.84-.89-1.66a2.39,2.39,0,0,1,.46-2c.49-.53.15-.74-1.05-1.2a12,12,0,0,0-4.19-.48c-1.63,0-2.64-.1-2.14.69s1.62,1.1.13.87-2.74-.34-3.06.23-.28.9,0,2.11.75,1.29.17,1.29a37.82,37.82,0,0,1-4.28-1.24c-.91-.29-1.32-.26-1.87.47a24.19,24.19,0,0,1-3.44,3.69C430.46,154.67,430.46,154.54,430.82,157.83Zm-56-33.37c-.66-.07-1.07-.2,0,.61a17.64,17.64,0,0,0,2.32,1.55c1,.57.88-.41,1.86.69s.78,1.13,1.51,1.54,1.27.54,1.58,1a4.79,4.79,0,0,0,1.59,1.55,3.42,3.42,0,0,1,1.57,1.31c.76.93,1.63,1.59,2.25,2.38s2.68,1.54,3.95,2.51,3.4,2.39,3.49,2,.91,0,1.32-.15.35-.71.11-2.07a3.13,3.13,0,0,0-1.64-2.29c-.56-.31-1.4-.38-1.73-.67a9.36,9.36,0,0,0-1.73-1.56c-.65-.31-.65,0-.94-.74s.34-.68-.59-1.1a6.57,6.57,0,0,1-1.47-.93c-.33-.21-2.1-.54-2.68-.91s-2.62-1-3.73-1.73a17.2,17.2,0,0,1-2.71-1.74C378.74,125.16,377.74,124.75,374.86,124.46Zm23.75,15.19c-.75,0-1.28-.37-1.47.39s-.13.76.65.76.77.35.78.45-.41-.08,1.43.47a4.6,4.6,0,0,0,3.24.12c.36-.2.81.5,3.15.8s3.31-.18,4.87.12,1-.15-.29-.79-1-.3-2.32-.92a10.29,10.29,0,0,0-3.41-.74c-.7-.1.82.59-1.29.37s-1.23.15-2.5-.42a6.33,6.33,0,0,0-2.05-.76C398.67,139.4,398.61,139.65,398.61,139.65Zm17.19,2.71c-.5.15-1.55.43-.92.63s.27.32,1.89.2,3-.3,3.09-.6-.33-.1-1.11-.28-.58.13-1.48.23A2.86,2.86,0,0,1,415.8,142.36Zm5.84-.09c-1.07.11-.83.32.16.54a5.78,5.78,0,0,0,2.46.18,9.08,9.08,0,0,1,1.77-.48c1.15-.17,1.58-.15,2.5-.24l.94-.1s-.18-.18-.83-.15-1.11,0-1.78,0-1.56.49-2.05.47a7.78,7.78,0,0,0-1.69-.15C423,142.51,422.79,142.14,421.64,142.27Zm6.92,1.22s0,0,0,0c-.57.46-.54.59-.29,1s.17.53.17.53a2.32,2.32,0,0,0,1.65-.81,1.82,1.82,0,0,1,1.33-1,3.51,3.51,0,0,0,1.38-1.1,6,6,0,0,1-1.46.07,2.1,2.1,0,0,0-1.55.52C429.6,142.84,430.12,142.89,428.56,143.49Zm-6.45.39c-1.06-.5-1.83-.43-1.75-.12s-.58.29.76.66,2.67.85,2.35.35A2.84,2.84,0,0,0,422.11,143.88Zm-16.43-19.82c-.22.51.6.38.13.83s-1.06.25-1.43.93a4.81,4.81,0,0,1-1.47,1.42c-.32.25-1.56.55-1.88,1.22s.66,1,.66,1-.31.14-1.42-.16-1.32-.67-1.32-.67-.71,0-.74.83-.22,1,.7,1.47-.27.54,0,.89.59,1,1,1.09.39-.33,1.15.21,1,2.1,1.69,2.17,1.1-.17,1.79,0a2.86,2.86,0,0,0,1.88.19,3.59,3.59,0,0,1,2.11.19,10.37,10.37,0,0,0,2.82.56c.7,0,.89.09.64-.75s-.7-1.63-.12-2.27.6-.64.39-1.23a2.52,2.52,0,0,1-.23-1.8c.24-.61,1,.35,1-.12s.34-.46.07-.7-1.05-.23-1.55-.67-.22-.67-1-1.56-.83-.55-.54-1.06.66-.59.55-1,.08-.41.55-.77-.19-.2-1-.56-2.5-1.7-3.19-1.69C406.72,122.18,405.9,123.54,405.68,124.06Zm127.17,55.16c-.49-.23-.66-.06.69.78s1.24.6,1.75.63,2.09,1.7,2.67,2.13,1.46.94,1.46.94a16.38,16.38,0,0,1,1.92,2.68c.34.84.06,1.21.44,2s1.2.57,2,.82.71.25,1,.94-.29,1-.2,1.14,2.11.92,2.26.06a6.68,6.68,0,0,0,.1-3c-.32-.9-.92-.5-.36-1.15s.64-.35.6-1.15-.08-1.63-1-2.06-.9.52-1.3.7-.79.22-1.77-.12a4,4,0,0,1-1.83-.95,9.54,9.54,0,0,0-1.3-1s.52,1-.24.71-.88-.71-1.67-1.28-.91-.76-1.45-1.18-.89-1.24-2.19-1.36S533.31,179.43,532.85,179.22Zm7.94,11.17a5.49,5.49,0,0,0-.51,2,5.68,5.68,0,0,0,.23,2.28c.15.64-.36,1.42-1.5,2.3s-1.56,1.24-1.59,2.06-.39,3.41-.44,3.71,1.39.6,2.67.6,4.08,1.15,4.38,0-.47-3.92-.46-4.91.42-1.33.86-2.28,1-2.67.55-3.34a14.56,14.56,0,0,0-1.69-1.75s.12.73-.88.63S540.79,190.39,540.79,190.39Zm0,12.48c-1.73-.67-1.15.58-.5,1.86s.69.19,1.42-.39S541.44,203.12,540.77,202.87Zm-48.55-8.6c-1.69-.45-.71.84.06,1.81a15.73,15.73,0,0,0,2.52,2.58c1,.82,3.23,1.11,3.83.75s.45-1.57.58-2.71a4.59,4.59,0,0,0-.81-3.1c-.54-.67-.79.61-1.27.9a2.36,2.36,0,0,1-2.32.71A20,20,0,0,1,492.22,194.27Zm-49.58-59.51c-.89.19-1.76-.53-3.29-1.91s-2.23-1.55-3.94-.94-1.49.47.09.9,1.84.57,2,.57,2.29.23,2,.47-2,.48-.52,1.14.79.2,4.58,1.49,3.8.34,5.73,2,1.77,1.42,1.2,1.86-1.41.89-.94.94,1.37.2,3.57.3.75,1.14,3.16,1.14,2.68-.64,3.09-1.59.89-.44,3.13,0,3.81,1.89,6.7,2.49,4.46,1.41,2.12.15-3.42-2.14-6.41-3.57-3.16-1.57-4.41-2.64a21.39,21.39,0,0,0-7-3.13c-2.87-.81-4.31-.92-7.49-1.57S443.53,134.56,442.64,134.76ZM424,130c-.66.52-.93.2-1.78-.15s-.15.73-2,.15-2.5-.87-3.68.11,0,1.4.33,2.11-.12,2.72-.28,3.46a1.23,1.23,0,0,0,.58,1.51c.6.48,1.07.3,1.41.54a6.81,6.81,0,0,1,1,2.81c0,.64,1,.76,1.92.58s0-.25-.31-.92,0-1-.58-2.23l-.84-1.81s.21-.12.76.3,1.61,1.6,2.32,2.21,1.37,1.07,1.83.64a10.4,10.4,0,0,0,.85-.91s-1.44-.34-1.62-.7.23-.66-1.24-1.87-1.95-1.25-.85-1.31.61-1,1.13-1.24a3.47,3.47,0,0,1,1.5-.18,2.7,2.7,0,0,0-1.81-.33,10.51,10.51,0,0,0-2.39.74c-.66.39-1.28.63-1.77-.09a5.91,5.91,0,0,1-1-1.85c-.34-1,1.34-.23,2.23-.47s.91-.17,3.15-.06,2.19-.29,2.48-1a4.31,4.31,0,0,0,.25-1.57A21.41,21.41,0,0,1,424,130Zm3.89-2.53c0-.28-1.1,1-1.3,1.25s.31.62.74,1a14.69,14.69,0,0,1,1.24,1.94,3.77,3.77,0,0,0,1.29.54s-.47-.87-.33-1.27-.45-.89-.81-1.61S427.75,128.37,427.91,127.51Zm.29,7.71c-1.64-.45-2-.16-1.73.46s.29.93,1.82.93S431.26,136.05,428.2,135.22Zm2.64-.4c-.31.09-.21,1,.27,1.57s.53.19,1.27.07.35-.65,1.32-.72a16.81,16.81,0,0,1,3.39.59s.22-.43-1.81-1.27A5.18,5.18,0,0,0,430.84,134.82Zm-40.3-28.12-1.51,0c-.2,0-.5.39-.76.55s-.18.36.22.77.8.42,1.5.55.33-.21.75-.35.41-.46.38-.76.23-.43.31-.53-.57-.45-.58-.48S390.54,106.7,390.54,106.7Zm16.2,1.43c-.66-.3-.46.74-.35,1.28s.09.89.54,1.29.39.53.39.53l-1-.44a2.89,2.89,0,0,0,.24.94c.2.44,0,.63,1.08,1s1.23.15,1.58.63.44.71,1.07.79a4.2,4.2,0,0,1,1.77.58c.37.3-.26-.79.18-.73a4.17,4.17,0,0,1,1.57.84,1.8,1.8,0,0,0,.92.38s-1.09-.88-.85-1,.28-.19-.65-.56a6.46,6.46,0,0,0-2.12-.34c-.61-.06-.43.32-1.29-.57a2.74,2.74,0,0,1-.86-1.62c-.08-.19.46.29.53-.31a2.7,2.7,0,0,0-.42-1.67c-.33-.58.14-.81-.31-.83A9.78,9.78,0,0,1,406.74,108.13Zm12.44,11.44c.31.44-.59-.13-.7.13s-.26.2-.58.33a3.91,3.91,0,0,0-.91.8s-.22-.44-.25-.54-.57-.61-.68-.26a1.26,1.26,0,0,1-.79.82c-.5.25-.72.61-.59,1.07a.61.61,0,0,0,.59.43,1.54,1.54,0,0,0,.35-.67c.17-.52.25-.5,1-.57s.66-.07,1.05.25.45.82.65,1.18a1.59,1.59,0,0,0,1.24,1c.88.21.41,0,1.1,0s.68,0,.44-.32a9.38,9.38,0,0,1-.79-.87c-.2-.34.18-.48.29-.55s.4.34.82.75.5.41.43.09a4.3,4.3,0,0,0-.47-1.47,7.72,7.72,0,0,1-.65-1,2.38,2.38,0,0,0-1-.84c-.26-.12-1.18-.6-1.18-.6S418.88,119.12,419.18,119.57Zm-4.7-2.68s-.12-.27-1-.77a4,4,0,0,0-2-.76c-1-.13-1.92.06-1.12.89s1,.94,1.85,1a1.47,1.47,0,0,0,1.21-.25s.13.13-.47.52-.34,1.13.41,1.42.95.74,1.2.51.14-1,.6-1.52.48-.61.3-1.18a4.81,4.81,0,0,0-.47-1Zm.91-1.58c-.06.06-.62,0,.1.37s1.26.49,1.34.79.15.35-.16.32-.44-.09-.57-.09-.06.19.12.38,0,0,.46.29a2.27,2.27,0,0,1,.65.79c.26.37.37.19.37.19s-.49-.88-.55-1.06-.39-.61.06-.47.6.66.58.17a2.49,2.49,0,0,0-.62-1.31,1.29,1.29,0,0,0-1.15-.4A4.43,4.43,0,0,0,415.39,115.31Zm-6.92,1.5c-.2,0-.26.21-.11.8a1.3,1.3,0,0,1-.44,1.26,7.38,7.38,0,0,0-1.08,1.5c0,.19,0,.07.73-.28s1.29-.8,1.18-1.27-.19-.18.48-.49.22-.4,0-.87S408.84,116.73,408.47,116.81Zm60.08,18.66c.3.67.76.87.31,1.36s-1.3.5-2,.61-.28-.11-1.28-.13-1.22,0-.52.44a2.82,2.82,0,0,0,2.25.77,8.72,8.72,0,0,0,3-1c.8-.24.34-.87.24-1.16S468.23,134.76,468.55,135.47Zm4.92,1.45c.7.47.5.4,1.4,1a6.47,6.47,0,0,0,2.51.91c.71.17-.11-.18-.88-.69a15.86,15.86,0,0,0-2-1.3C473.56,136.36,472.27,136.09,473.47,136.92Zm-69.94-36.67c-1.4.86-2.24.8-1,1.9s1.91,1.57,2.11,1.79.4-.15.48-1a14.51,14.51,0,0,0-.36-2.36C404.78,100.21,404,100,403.53,100.25Zm9.7-37.71c.43.45,1,1.16.65,1.23s-.36.58-.17,1.1a2.71,2.71,0,0,0,1,1.6c.67.42.38.45.58.8a6.67,6.67,0,0,1,.9,1.79,1.64,1.64,0,0,0,.38,1.24,11.39,11.39,0,0,1,.84,1.51c.47.83.76,1.49,1,1.82s.21-.16.33-.28a1.59,1.59,0,0,1,1.33.1l.55.28s.72.19-.85-1.08-1.56-1-2-2.12-.28-1.14.52-1.26,1.73.7,1.88.78-.23-.27-.9-.91a8.93,8.93,0,0,1-1.62-1.63,4.76,4.76,0,0,0-1.85-1.66.7.7,0,0,1-.52-.88,2,2,0,0,0-.55-1.27,18.27,18.27,0,0,0-1.3-1.52c-.28-.27-.53.17-.53.17Zm6.18,12.39c.26.37.5.7.37,1.13s.19.52.32,1.12-1.24,0-1.17.12.15.55,0,.7-1.06.19-.46.79A15.07,15.07,0,0,0,419.87,80s.33-.35.47-.38l.51-.12a2.05,2.05,0,0,0-.86-.37c-.68-.19-.85-.58-.84-.7s.84,0,1.29,0a2.25,2.25,0,0,1,1.52.12,7.87,7.87,0,0,0,1.67.45,2.14,2.14,0,0,1-.1-.83c.07-.35.92-.19,1.6-.35s1.2-.24.81-.46-.65-.71-1-1.09-.67,0-1,.12a2.44,2.44,0,0,1-1.53-.2,19.82,19.82,0,0,1-2.64-1.49S419.15,74.55,419.41,74.93Zm.77,5.62c-.2.08-.27.55.07,1.06s.66,0,.73,1.55-.13,2-.69,2.38a2,2,0,0,1-1.64.31c-.37-.11-.18-.47,0-.58s-.77-.15-1.13-.11.17.36.26.61-.28,1,0,1.26.3.41-.13.52-.95-.26-1.12-.31a11.56,11.56,0,0,0-1.73.19c-.9.09-1,.33-1.17.83s-1.06.6-1.65.79,0,.91-.6,1.16-.39.71-.26,1.09.52.11.59.08-.18-.53.32-.47.57.07.52.46-.09.59-.16.92.33.5.87.84.68-.1,1.14-.71.47-.74.05-1.43-.73-.7-1.4-.89-.7,0-.33-.53.91,0,1.22-.25a10.9,10.9,0,0,1,2.26-.4c.9-.18,1.74-.41,1.9-.18s.9,1,1,1.19.57-.23,1.15-.41-.1-.26-.33-.58a.33.33,0,0,1,0-.5,1.47,1.47,0,0,0,1.5.15c.88-.37.88-.52,1.2-.46s.61.26.94.05.52,0,.53.15,1.13-.31,1.35-.46.14,0-.3-.59-.85-.61-1-1.35a6.07,6.07,0,0,0-.48-1.25c-.19-.46,0-.52.16-.55s-.19-.63,0-.95,0-.46-.4-1.19-.9-.59-1.22-1.1a3.37,3.37,0,0,1-.42-1s-1,.3-1,.48l0,.19A.65.65,0,0,0,420.18,80.55ZM417,88.61a22.64,22.64,0,0,0-2.56.4c-.63.17-.66.4-.28.92s.93,1,1.17,1.32.5,0,1-.27.1-1,.75-1,.69.54,1.16-.22-.23-.82-.41-1.21S417,88.61,417,88.61Zm48.54-36.22c-1.26-.14-1.71-.3-1.61,0s0,.35.89.52,1-.12,1.92.2a2.82,2.82,0,0,0,1.6.27c.49,0,.56-.21.56-.21S466.52,52.5,465.57,52.39ZM444.48,41.23c-.35.07-.86-.17-.31.44s.82.69,2,.58.29,0,2-.11a5.84,5.84,0,0,0,1.94-.24,6.36,6.36,0,0,0-1.26-.58c-.8-.28-1.24.19-2.69,0S444.48,41.23,444.48,41.23Zm-44.29-8.77a13.38,13.38,0,0,0,2.89,1,6.74,6.74,0,0,0,2.38,0c1.24-.08,1.14-.42,1.18-.6s-.68-.13-1.6-.23-1.52.09-1.88,0,.35-.19-.51-.36-.92.06-1.13,0a1.86,1.86,0,0,0-.72-.25C400.42,32,400.05,32.25,400.19,32.46Zm-5.9,1.3c-.51.14-.4.27.45.6s.59.26.43.5,0,0,1.09.25,1.76.73,2.42.84a2.11,2.11,0,0,0,1,0,7.42,7.42,0,0,0-1.25-.85c-.82-.46-2.11-.6-2.55-1A1.46,1.46,0,0,0,394.29,33.76Zm5-1.85-2.61-.8a13.34,13.34,0,0,0-2.58-.65c-.45,0-.21.27-.25.51s-.17.2-.95,0-1.62-.49-2.35-.59-1,.25-1.51.71,0,.6,1.32,1.29,1.78.74,2.41.47.3-.46.93-.32a12.37,12.37,0,0,0,2.48-.14.88.88,0,0,0,1,.48,4.77,4.77,0,0,0,1.72-.51C399.12,32.1,399.28,31.91,399.28,31.91ZM336.42,19.13c-.2.12-1.59.05-2.08.69s-1.13.19-1.36.58a4.88,4.88,0,0,0-.38.86,3.41,3.41,0,0,0,1.48.41,5.49,5.49,0,0,1,2.81.67c.86.54,1.36.54,3.05.69s1,.28,1.82.24,2,.05,1.69-.19-.61-.4-.68-.88.69-.45-.31-.76a3.4,3.4,0,0,0-1.51-.12c0-.06.71-.23.41-.24s-1.82-.06-2.16-.54.21-.52.5-.55.18-.09-.81-.45-2.26-.71-2.26-.71C336.15,19,336.61,19,336.42,19.13Zm9.39,3.49a1.81,1.81,0,0,0-1.23.75,5,5,0,0,1-1.18,1c-.38.22-.23.28.57.43a8.49,8.49,0,0,0,2.32-.28,7.14,7.14,0,0,0,1.93.23c1.14-.08,2.88-.21,1.86-.58s-.64-.19-1.78-.63a7.77,7.77,0,0,0-2.36-.48s1.82-.39,1.34-.41S345.81,22.62,345.81,22.62ZM294.6,17c-1.06.23-.65.34-1.31.66s-.16.42,1.36.21a14.62,14.62,0,0,0,2.52-.56C298.11,17,296.19,16.66,294.6,17Zm2.79,1.59c-1,.26-.66.54-.34.77s1-.14,1.29.11.31.15,1.22-.22.56-.26.09-.66S299.09,18.13,297.39,18.58Zm-5.86-.17c-.64.19-.64.17,0,.34a6.43,6.43,0,0,0,3,0c.74-.29.69-.23-.33-.32A8.67,8.67,0,0,0,291.53,18.41Zm-9.79.69a27.21,27.21,0,0,1,2.84,0c.84.05.6.46-.93.55s.18.23,1.27.21.3-.54,1.19-.72,1.48-.07,2.53-.29-.7-.43-2-.42-1.67.06-2.75,0a20.3,20.3,0,0,0-3,.34C278.7,19,280.71,19.15,281.74,19.1Zm8.21.16c-.92,0-3.08.29-1.2.4a7.2,7.2,0,0,0,2.49,0C292,19.5,290.92,19.26,290,19.26Zm6.53.23a7.13,7.13,0,0,0-2.37-.12c-1,0-1.34.38-.65.54a4.7,4.7,0,0,0,1.66,0c.54-.05.49-.15.12-.22S297.28,19.63,296.48,19.49Zm5.29-.92c-1,.07-1,.17-1.08.35s.17.15,1.22.07a7.62,7.62,0,0,0,2.15-.37c.64-.21-.31-.73-.33-.82s-.91.28-1.15.41S302.93,18.48,301.77,18.57ZM220.31,55.83c-.66,1-1.66,1.53-.5,1.24s2.34-1.19,2.23-.42-1.21.66-.92,1.42,0,.7,1.9,1,.33.18.75.92.72,1,.21,1.19-1.91-.68-2-.3.15.66.47,1.19-.3.84-1.45,1.19-.19.57.67.54,3-.3,2.65.2-1.39-.08-2.19.76-3.62,1.59-2.18,1.54,1.25-.31,5.54-.72,1.31,0,4.14-.61,1.94-.73.39-.56,1-1,.75-2.1-1.35-.05-2-.73-.51-.88.71-.63,1.13-.17-1.19-1.17-.86-.8-1.89-1.63a4.88,4.88,0,0,0-2.85-.73,3.68,3.68,0,0,0,1.3-.9A16.5,16.5,0,0,0,226,55.23c.54-.72-.44-.65-1.69-.48s-1.66.25-1.37-.06a4.15,4.15,0,0,1,1.06-.84c.6-.39.73-.6-.34-.44a11.73,11.73,0,0,0-2.15.41C220.08,54.23,221,54.8,220.31,55.83Zm-3.14,2.47c-1.95.49-1.44.81-1.14,1s.92-.16-.93.51-1.95,1.41-1,1.56.86-.36-.27.88-1.91,2.12.17,1.8,2.71-1,3.69-1.11,1.2-.6,1.27-1.38-.58-.8.24-1.44.93-1.31-.53-1.62S218.39,58,217.17,58.3Zm23.66,18.08c-.11.19.12.71-.7,1.07s.39.69.64,1,.62-1.16.55-1.88S241.17,75.77,240.83,76.38Zm-.43,2.85c-1.35.44-1.44.77-1.62,1.49s1.09.14.76.77,0,1,1.38.37.62-1.14.84-1.89S242.17,78.64,240.4,79.23Zm21.09,7.83c-1.21-.09-1.72.46.36.63a15.76,15.76,0,0,0,3.78,0c.76-.13.12,0-.93-.52S263,87.17,261.49,87.06Zm11.56.46c-1.69-.26-1.12,1.21.57,1s1.07.08,1.76-.82S274.82,87.8,273.05,87.52Zm-41.22-6.64c-1.33.12-1.45.43-.42.63s.9,0,1.5-.34S232.42,80.82,231.83,80.88Zm-75.6-16.24A13.14,13.14,0,0,0,152.76,67a10.24,10.24,0,0,1-2.66,2c-1.31.75-.72.58,2.49,1s2.85.79,3.66.64.84.29.71.76.67.2,1.23-.54A2.78,2.78,0,0,0,158,68c-.48-.75-.63-.75-1.75-.56s-.68-.17-.89-.74-1-.12.21-1S157.1,64.24,156.23,64.64ZM56.67,63.13a1.94,1.94,0,0,0,.5,2.3c.59.39.55.17.69-.67s.44-.83.6-1.36S56.82,62.88,56.67,63.13ZM59.81,67a3.72,3.72,0,0,0,1.26,1.34,5.3,5.3,0,0,0,2.2.84c1.08.24,1.81-.08,1.3-.57s.13-.43-1.16-.66-1.64-.14-2.17-.45S59.54,66.65,59.81,67ZM34.38,59.23a3,3,0,0,0-2,.16c-.84.32-1.21.6-1.13,1s0,.16,1-.19a5.71,5.71,0,0,1,1.8-.56c1.09-.16,1-.38,1-.38A1.82,1.82,0,0,1,34.38,59.23Zm.24-.78c-.77.24-1.1.43-.37.34s.81-.34,1.2-.28a1.16,1.16,0,0,0,.61-.06A2.35,2.35,0,0,0,34.62,58.45Zm-15.7-1.79c-1,.26-1.54,0-1.19.15a2.66,2.66,0,0,0,1.45.34c.56,0,.92,0,.85-.21a.32.32,0,0,1,0-.39C20.23,56.32,19.93,56.4,18.92,56.66Zm286.33,97c-.87,2.39-3.67,1.22-5.51,3s-1.61,1.23.32,3.73-1,2.25-1.35,5.25,1.21,2.49,2.45,5.11,1.56,1.85,3.15,1.5a8.47,8.47,0,0,0,2.64-1,31,31,0,0,1,.48-5.62,34.43,34.43,0,0,0,.77-7.75c-.14-2.09-.18-3.58.45-2.94s.69.64.52-.37-1.24-3.81-2.35-4.46C304.9,148.9,306.12,151.28,305.25,153.64ZM288.77,38.93c-1.18.17-1.68.62-.77.8s.81.08,2.21-.24S289.94,38.76,288.77,38.93Zm19.47-12.84c-.48-.36-.71.12-4.52,1.15s-4,.15-7.44,1.93-2.69,1.57-2.71,2.67-1,.63-1.2,1.64-2.16,1.06-1,1.91a10.52,10.52,0,0,0,4.72,1.71c2.18.36,2.7,0,2.22-.16a4.44,4.44,0,0,1-2.38-3.36c0-1.69,1.08-1.44,1.86-2.06a19.78,19.78,0,0,1,4.15-2.77c1.35-.52,5.08-1.25,6.94-1.65.05,0,.12,0,.15,0C310.3,26.06,308.73,26.45,308.24,26.09ZM299.6,37.32c-.49,0-.72,0,.3.6s1.92,1,1.47.23A1.93,1.93,0,0,0,299.6,37.32Zm13.72-5.2c-.71-.19-1.11-.38-1.19-.08s.92.7,1.82.8S314,32.29,313.32,32.12ZM147.26,67.85a8.83,8.83,0,0,0-2.75-.69c-.73,0,0,.53,1,1S147.85,68.08,147.26,67.85Zm-3.77,3.27c.28-.65-.88.75-.13,1.06a1.75,1.75,0,0,0,1.83,0c.66-.38.14-.14-.57-.23S143.26,71.66,143.49,71.12ZM464.28,50a9.71,9.71,0,0,1-2.38-.15s.43.66.28,1,.4.66.4.66-1.58-.36-2.46-.54a4.34,4.34,0,0,1-2.44-.75,5,5,0,0,0-3.17-.59,1.41,1.41,0,0,1-1.32-.83l-.59,0c-.59,0,.19.95-.38,1.25a14.46,14.46,0,0,1-2.92.5,14.39,14.39,0,0,1,2.87,1.33,16.11,16.11,0,0,0,1.8,1.2s.06.29-2,0-1.65.25-3.34.79a18,18,0,0,0-3.86,1.7c-.38.32-.53.14-2.56-.15s-2,.33-2.35.49-.76-.71-.76-.71a3.82,3.82,0,0,0-1.29.26c-6.59,2.79-.88,2.64-.77,3.21l.54,2.22c.35,2.49-1.36,1.19-1.16,3.17.66,6.49-5.95-1-7-2.64-.63-1-1.76-2.31-1-2.61,6.65-2.52.56-.35,6.08-3.81,1.76-1.1,0-1.76.33-2.07a2.66,2.66,0,0,1,1.15-.39l-1.39-.09c-1.4-.08-1.31.11-1.88.85s-1.33.88-1.48.31-.49-1.16-1.09-.85a7.23,7.23,0,0,1-2.32.46,4.4,4.4,0,0,0-3.35,1.76c-.68,1.11,0,1,.62,1.24s-2,.2-3.34.14-.72-.23-.08-.38-1.27-.29-3-.52-.88.18-1.69.43-1-.23-1.56-.29-2.69-.16-4.26-.27-1.35.07-1.57.4-2.11,1.95-2.82,2.88-2.13,1.14-3,2-1.16.83,0,1,1.31.07,1.87.76a2.7,2.7,0,0,0,2.42.94c1.2,0,1,.21.87-.4s-1-1.3.29-.77a8.51,8.51,0,0,1,3.09,1.71c.74.77.67,1.34.87,2.65s1.06,3.24.87,4.22-.37,1.73-.58,2.83A10.55,10.55,0,0,1,410,77.8a2,2,0,0,1-2.08-.29c-.72-.56-1-.46-1.68.18a2,2,0,0,0-.84,2.07c.13,1-.75,1-1.27,1.83s-.85.61.27,1.51,2.75,1.88,3.32,2.77a4,4,0,0,1,.39,2.78c-.17.58-2.15.85-2.25.58a20.65,20.65,0,0,0-1.2-2.44c-.47-.79-1.28-.79-1.12-1s1.14-.65,0-1.21-1.48-.08-2.17-.75-.43-1.2-.74-1.44a4.65,4.65,0,0,0-2.32-.58c-1.27-.08-1.14.79-1.79,0s-.27-.85-1-1.16-1.09-.1-2.11.76-1.4.69-2.43,1.06-.93.58-.52.87a9.86,9.86,0,0,0,2.91,1.72c.91.13,1.33-.27,2.62-.27s1.6.13,1.44.48-.88.7-1.93,1.85-.67.93.08,1.39a17.27,17.27,0,0,1,2.79,2c1,.92.59,1.25.76,1.79A3.54,3.54,0,0,0,401,94.48c1.48.85.6.57.62.88s-.65,2.8-.9,4.06-.21,1.39-2.3,2.85a9.07,9.07,0,0,1-4.67,1.83,17.42,17.42,0,0,0-3.21.78c-.67.25-.16.73-.12,1s-.8,0-.87-.43a1,1,0,0,0-.72-.91,2.65,2.65,0,0,0-2.65.43c-.86.91-2.35,1-2.39,2.13s-.12.77.64,1.27A45.16,45.16,0,0,1,389.9,112a9.39,9.39,0,0,1,2.16,3.16c.55,1.23-1.75,3.51-2.86,4.27s-1.15,1.49-1.4.3-1.37-1.88-2.74-2.76a20.21,20.21,0,0,0-5.35-1.68c-.6-.1-.08-.8-.47-.77s-1.37-.16-.82,1-.63.78-.43,1.92.39,2.33,1.29,2.23,1.15,1,2.34,2.29.67.57,2.93,1.74,1.73,1,2.61,2.18,1,1.89,2.37,3,1.5,1.36-.26.73a13.9,13.9,0,0,1-4.18-2.14,27.25,27.25,0,0,1-2.7-3.62c-.73-.94-3.57-2-4.62-2.72s-.76-1.19-.92-2.7-1.26-2.93-1.73-3.83a34.33,34.33,0,0,0-3-4.21c-.74-.83-.52-.72-.94,0s-.77,1.16-1.43,1.16-1.63-.08-1.67-.41.18-1.58-.18-2.05a9.16,9.16,0,0,0-2.58-2.46,9.58,9.58,0,0,1-3.35-2.44c-1-1.19-1-.84-1.91-.22s-3.42.69-4.61.77-.05.53-.2,1-1.4,1.06-3.58,3.39-2.64,2.44-3.33,2.69-1.19.18-.87,1.16a12.72,12.72,0,0,1,.69,2.41,3.58,3.58,0,0,1-.27,1.84,7.63,7.63,0,0,0-.16,2.17c.06.55-.43,1.19-1.25,1.75s-.85.47-1.54-.36-3.85-4-6.49-6.87-2.28-3.36-2.67-4.17a55.08,55.08,0,0,1-1.69-5.94c0-.21-.72.55-.88.93s0,.85-1,.92a2.85,2.85,0,0,1-2.38-.66c-1.16-.73-1.7-1.14-1.52-1.12a6.09,6.09,0,0,0,1.84-.32c.57-.25.3-.51.3-.51s-.68.06-1.5.09-.49-.14-1.66-.47-1.42-.35-1.69-.72-.66-.88-.88-1.16-.35-.3-.61-.64-.69.06-1.86.08a4.88,4.88,0,0,0-2.2.47,7.2,7.2,0,0,1-3.16.23,14.47,14.47,0,0,1-3.67-.76,12.74,12.74,0,0,0-2.15-.25c-1.21-.12-1-.57-1.41-.95s-.87-.45-2.4-.37a6.79,6.79,0,0,1-2.48-.14,4.07,4.07,0,0,1-1.84-1c-.82-.54-.5-.12-1-.4a4.09,4.09,0,0,1-1.56-1.41c-.5-.75-.44-.91-.93-1.25s-.44-.26-1.78-.26-.72.07-.88.13a6.87,6.87,0,0,0-.82.85c-.32.35.43.82,1.05,1.29s.13.43,1.11,1.14.68.65,1.46,1.66,1.22,1.26,1.41,1.57.25-.12.34-.4a3.51,3.51,0,0,0-.26-1.25,6.71,6.71,0,0,1,.69,1.14c.37.73.2.74.45,1.2s.07.41,1.12.41a13.37,13.37,0,0,0,2.86-.18c1.14-.21,1.49-1,2-1.25s.36-1.06.74-1,.2,1,.65,1.56.49.37,1.36.63,1.13.41,2,.64.32.27.9.9.49.28,1,.5.28.06.13.82-.22.77-.84,1.39-.65.43-.77.41-.44-.46-.44-.46a3.49,3.49,0,0,0-.22,1.61c.1.88.48.56-.8,1a10.52,10.52,0,0,0-2.55,1c-.47.35-.38.82-.64,1s-.73,0-1.61.27a2.79,2.79,0,0,0-1.34.67c-.7.46,0,.41-1,.71a25.11,25.11,0,0,1-3.57,1.06c-.91.07-.69.26-.88.53s-.19.4-1.34.54a17,17,0,0,0-3.28.55c-.68.27-1.65.9-2.43.78s-.58-.14-.9-.68a6.1,6.1,0,0,1-.74-1.79,8,8,0,0,0-1.55-3c-.74-.82-.73-.88-1.53-1.73a9.14,9.14,0,0,0-2-1.9,11.54,11.54,0,0,1-1.26-.59c-.31-.25-.24-1.08-.62-1.78a5.64,5.64,0,0,0-1.14-1.77,11.27,11.27,0,0,1-1.91-1.66c-.69-.82-.74-.91-1.75-2.15s-1.31-1.4-2-2.23-.26-.66-.51-1.15-.68.79-1.08,1-.64.13-1.06-.6-.76-1.36-1-1.08-.42.57,0,1.35.58.61,1.13,1.35,2,2.63,2.63,3.42a5.49,5.49,0,0,1,1,1.61,3.89,3.89,0,0,0,1.64,1.86c.72.5.58.24,1,1.07a8.46,8.46,0,0,1,.48,2.32c.1.52.5.78,1.36,1.3s.45.33.89.88a12.63,12.63,0,0,1,1.18,1.88,2.12,2.12,0,0,0,1.26,1.17,13.12,13.12,0,0,0,1.52.46c.67.18.46.3.95.74a15.49,15.49,0,0,1,2,1.47c.62.7.23.49.29,1.17s-.26.37.18.73a14.51,14.51,0,0,0,2.34,1.24c1.21.59.25.17,1.25.15a10.86,10.86,0,0,0,2.24-.42c1.05-.18,2.4-.5,3.69-.75s2.56-.41,3.22-.58.76.41.4,1.32-.49,1.69-.82,2.44-.48.82-.7,1.44-2.06,3.15-2.4,4a8.17,8.17,0,0,1-1.39,2.15,30.57,30.57,0,0,1-3.48,2.59c-.92.67-.66.67-1.31,1.46s-2.66,3-3.19,3.79a15,15,0,0,0-1.22,1.88c-.37.79-1.57,1.92-1.58,2.5s-.76.65-.13,1.16.93.59,1.22,1.24-.47,1.39.21,2.59.2.34,1.13,1.3,1,1.59,1.24,3a14.38,14.38,0,0,1,.37,3.83,14.63,14.63,0,0,1-.7,2.44c-.27.87-2.28,1.46-3.44,1.93s-1.14.29-1.64.88a18.42,18.42,0,0,0-2.44,2.78c-.46.94-.89.84-.61,1.44s.82,1.37,1.5,2.49.28,1,.24,2,0,.83-.07,2-1.59,1.23-3.32,1.87-1.11.32-1.24,1.2a34.73,34.73,0,0,0,.17,3.7c0,1.07-.56.64-1.44,2s-1.22,2-2.15,3.58a5.47,5.47,0,0,1-2.15,2.42c-1.28,1-2.34,1.3-2.86,2.49s-1.26.4-4.14,1.29-.77.46-3.54.75-3.76.51-5.23.76-1.29-.08-2.22-1-1.07-.86-1.5-1.64-.13-1-.29-2.35a3.61,3.61,0,0,0-.84-2.28,12.34,12.34,0,0,1-1.16-2.32,10.8,10.8,0,0,0-1.56-2.6c-.67-.89-.85-.61-1.47-1.19a2.77,2.77,0,0,1-.78-1.88c-.15-.8-.38-2.69-.69-4.65s0-.92-.39-1.74a29.83,29.83,0,0,0-1.34-2.88,13.77,13.77,0,0,0-1.25-2.12,12.08,12.08,0,0,1-1.33-2.27c-.55-1.13-.63-.62-.66-1.06s.28-1.22.32-2a27,27,0,0,1,.51-2.76c.22-1.14-.29-1.13.26-1.91a11.76,11.76,0,0,0,1.48-2.35,3.74,3.74,0,0,0,.29-2,3.24,3.24,0,0,0-.53-1.91c-.38-.9-.53-1.95-1-3.38a7.6,7.6,0,0,1-.51-1.91,11,11,0,0,0-.69-2.5c-.31-.73-.47-.44-1.15-.91s-.24-.27-.83-.79-.48-.69-1.05-1.26a7.51,7.51,0,0,1-1.11-1.22c-.45-.63-.21-.25-.13-1.31a37.08,37.08,0,0,1,.71-4.19c.24-1.13.28-1.07-.24-1.54s-.9-1.15-1.31-1.27-1.4.12-2.84.1-1.37-.29-2-.87-1.4-1.38-1.68-1.6-.77-.2-3.22-.05a12.66,12.66,0,0,0-2.61.38c-1.63.2-2.31.9-3.58,1.25s-1.64.26-3.82-.09-3.35.41-4.5.79a2.46,2.46,0,0,1-2.46-.25,15.74,15.74,0,0,0-2.44-1.33c-1.2-.49-.89-.76-2.07-1.25s-.78-.5-1.72-1.27-.92-1.55-1.53-2.34a21,21,0,0,0-1.92-2.72,22.51,22.51,0,0,1-1.93-3c-.4-.49-.74-.53-.7-.77s1.09-1.59,1.55-2.3.53-.61.74-1a4.27,4.27,0,0,0-.27-2.37c-.26-.68-.47-2.1-.66-2.76s.23-.66.6-1a27.45,27.45,0,0,0,2.19-2.28c.94-1.13,1.45-1.68,1.93-2.2a18.07,18.07,0,0,1,2.3-2.52,23,23,0,0,1,3.06-1.53c.7-.26,1.27-.4,1.4-.63s.6-2.1.87-2.88,0-1.2.84-1.5,2.06-.85,2.72-1.11.79-.64,1.16-1.2.56-1.25,1.07-1.48.34.1.95.41a3.24,3.24,0,0,0,1,.38c.3,0,.58-.17,1.33-.18a2.3,2.3,0,0,1,1.25.23c.44.18.2.18,1.51-.39a25.9,25.9,0,0,1,4-1.35,22.81,22.81,0,0,1,3.58-.74c.77-.06.38,0,1.23.25s.89.35,1.07.17.76-.68,1.12-.66.78.12,1.7.24a3.22,3.22,0,0,0,1.7-.09c.37-.14.86-.43.95-.43s.89.2,1.53.37.65.19.52.31a2.57,2.57,0,0,0-.63.75c-.32.5-.17.23.12.76s.51.51.38.9-.75.76-1.2,1.15-.35.45.75.9a18,18,0,0,0,2.09.78,20,20,0,0,0,2.75.58c1.45.32,1.28.35,1.79.78s.55.85,1.43,1.07,1.82.23,2.34.46a5,5,0,0,0,1.63.67c.69.1.69.17,1-.2s.59-.7.46-.89-.52-.48-.44-.66a11.17,11.17,0,0,1,.8-1.1c.17-.21.62-.27,1.7-.31s1.82-.15,2,.32.15.25,1,.5.93.25,1.64.45.37.48.73.46a5.54,5.54,0,0,1,1.6.09,16.38,16.38,0,0,0,3.19.6,4.1,4.1,0,0,0,1.95-.31c.18-.07,1-.88,1.61-.32s1.28.57,2.63.51,1.34-.2,1.62-.46a5.52,5.52,0,0,0,1.19-1.85c.2-.65.76-2.06.88-2.7a2.76,2.76,0,0,0-.23-1.49,1.51,1.51,0,0,1,.15-1c.16-.41-.65-.16-1-.08s-.44-.12-.75-.19-.65-.11-.84.3-.06.62-1.3.58-1-.1-1.45-.42a4.83,4.83,0,0,0-1.69-.51c-.56-.12-.61-.1-.63.15s0,.43-.42.53A5.06,5.06,0,0,1,268,85.6a6.08,6.08,0,0,1-1.81-.92c-.79-.53-.68-.53-1-1.34a2.62,2.62,0,0,1-.28-1.73c.12-.23.33-.3-.24-.18s-.94.19-.59-.41a1.26,1.26,0,0,1,1.09-.71,13.46,13.46,0,0,1,1.75-.12,5.42,5.42,0,0,0,1.58-.39c.26-.07.79-.2.51-.25s-1.12-.12-1-.28.23-.16.67-.19,1.15,0,1.74-.08.95,0,1.13-.2a2,2,0,0,1,.84-.82,7.17,7.17,0,0,1,2.15-.12c1.21,0,1,.17,1.46.37a3.56,3.56,0,0,0,1.19.17c.52.07.22.28.63.39s1.14.23,2.05.43a3.23,3.23,0,0,0,1.4.11,9.73,9.73,0,0,0,1.89-.1,4,4,0,0,0,1.74-.63c.56-.3.06-.95-.23-1.45s-1.27-.83-1.73-1.06-1.47-1-2-1.25a12.26,12.26,0,0,0-1.67-.59c-.57-.21-1.58-.55-1.7-.83s.18-.28,1-.41.52-.25.64-.54.19-.28.83-.45-.82-.51-1-.7.43-.13,1.07-.24.67-.32.74-.5,0-.28-.74-.27a19,19,0,0,0-3,.46c-1.27.24-.68.25-1.42.67s-.81.24-.69.47.2.45,1,.74.49.3.72.34.77.1.53.15-.43.32-.79.32-.5.26-1.09.5a4.15,4.15,0,0,1-1.32.33c-.45,0-.79-.05-.77-.59s-.25-.17-.74-.3a2.2,2.2,0,0,1-.68-.27,6,6,0,0,0,.93-.32,1.39,1.39,0,0,0,.86-.74c.19-.4-.53-.18-1.08-.23s-.39-.08-.93-.13a1.12,1.12,0,0,1-.76-.34,2.29,2.29,0,0,0,.7,0c.45,0,.34-.12.49-.2s.29-.16.16-.16-.68,0-1.05,0a5.28,5.28,0,0,0-1.13,0c-.54,0-.31.19-.68.37a1,1,0,0,0-.57.48c-.18.26-.25.22-.38.38a1.61,1.61,0,0,0-.07.87c0,.28-.07.37-.3.6s-.24.14-.64.28-.13.24-.16.53-.17.39-.18.77-.22.38-.53.65-.49.26-.49.53a2.22,2.22,0,0,0,.06.92c.12.53.33.4,1,.94s.93.33.74.61-.16.17-.89.11a1.52,1.52,0,0,0-1.35.37,10.51,10.51,0,0,1-.87.69c-.27.13-.2-.26-.31-.44a10,10,0,0,0-2.18-.42c-.84-.17-1.07-.28-1.28-.28a3.06,3.06,0,0,0-1.39.31c-.86.33-.65.53-.57,1s.77.54.63,1.59.76.57,1.2,1.22.06.6-.17.68-.45.64-.61,1.18.05.61-.17.58a1.07,1.07,0,0,1-.93-.35c-.44-.45-.76,0-.84-.28s-.61-.69-.43-1.28.5-.64-.24-.94-.55-.35-.91-1a3.7,3.7,0,0,0-1.12-1.3c-.68-.56-.61-.4-.45-1s.27-1.28-.13-1.67a14,14,0,0,0-3.42-1.94c-1.33-.5-1.6-.12-2.2-.9s-.88-1.6-1.85-2.07-.49-.51-1.42-.27-.95.33-.87.52a1.15,1.15,0,0,1,.15,1c-.13.52-.33.35.65.76s.57.31,1.06,1.06a4,4,0,0,0,1,1.2,2.38,2.38,0,0,0,1.53.73c1,.15.83,0,1.08.13s-.68.23-.5.31a10.73,10.73,0,0,0,1.23.66,7.16,7.16,0,0,1,1.93,1c.23.29,1,1.38-.11.58s-1.1-.43-1.38.12.29,1,.27,1.38-.54.25-.87.58-.51.73-.91.94-.28-.24-.5-.24-.3.2-.57.59,0,.55.13,1.07.33.57-.46.54-.61-.55-1.33-.9-1.15-.23-1.76-.5.26-.33,1.77-.46a4.12,4.12,0,0,0,2.14-.5c.45-.25.29-.31.78-.82s0-.7-.36-1.3a2.64,2.64,0,0,0-1.21-1,12.17,12.17,0,0,1-1.15-.8,3.42,3.42,0,0,0-1.65-.52c-.75-.13-.61-.61-1-.75a12.42,12.42,0,0,1-1.77-1.17c-.94-.61-.58-1.07-1-1.6a2,2,0,0,0-1.79-.93,4.66,4.66,0,0,0-2.59,1.08c-1,.64-.77.94-1.85.46a2,2,0,0,0-2.28,0,1.84,1.84,0,0,0-1,1.84c0,.93-1,.54-1.73.8s-1.46.91-2.69,2.45,0,.81-.23,1.34,0,1-1.09,1.65-.6-.08-1.27.48a4,4,0,0,1-3.12.89c-1.52-.14-1.11.3-2.09.46s-1.53.4-1.23-.38.1-.67-1.76-.62-2.53.4-2.35.22a4.27,4.27,0,0,0,.56-1.26c.26-.75.56-1,.29-1s-.9.11-.34-1.21.74-1.55.61-2.3.23-1.76,0-2.19.55-.87.26-1.1-.62-.53-.39-.53a22.65,22.65,0,0,1,2.45.17,29.76,29.76,0,0,0,3.3-.07c.73,0,2.29.28,3.84.45s1.54-.15,1.47-1.74.25-2.29-.2-2.62-.95-.29-1.42-.71-.06-1-1.11-1.25-2.27,0-1.68-.2.82-.19.23-.51-.72-.65-.26-.7,1.76,0,1.76,0,.09.44.79.24,1.59-.38,1.42-.7-.5-.69-.38-.69a2.75,2.75,0,0,0,1.8.43c1.45,0,1.34-.15,1.25-.55s1-.39,1.71-.72-.24-.71-.07-1,1-.5,2.48-.57,1.21-.24,1.07-.35.06-.62.19-1.25-.08-.84.67-1.14.53-.18,2.07-.28.6-.32.86-.37,2.1-.34,2.44-.43.3-.07,0-.51a4.5,4.5,0,0,1-1-2.68c-.3-2-.23-2,1.61-2.32s1.43-.25,1.27.84-1,1.1-1.16,1.91a2.1,2.1,0,0,0,.73,2.18c.77.88.7.44,2.38.44s1.3.27,2.42.53.74-.46,1.82-.71.86.16,3.39-.1l1.36-.12c-.07,0-.35,0-.07-.11.59-.23.73-.64,1.58-.71s1.45.16,1.38-.7-.55-.72-.42-1.38.16-.36.22-.87-.13-.6.92-.78.36.62,1.65.8,1.12.31,1.31-.34.83-1.48.21-1.44-.76,0-1.41-.61-1-.73-.62-.73a32.78,32.78,0,0,1,3.66-.2c1.93.05,2.48.16,2.58,0s-.34-.27.29-.53,2.8.13,2.46-.11a8.53,8.53,0,0,0-3.51-.43c-1.26.13-4.33.37-4.8.35a4.67,4.67,0,0,1-1.57-.39c-.23-.16-.92-.26-.95-1s.36-1-.32-1.67,1.13-1.25,2.35-2,.86-1.29,1.6-1.33,1-.29.64-.52a9.16,9.16,0,0,0-2.35-1.1c-.64-.08-1.61-.53-2.55.54s.11,1.18.32,1.74-1.36,1-2.52,1.52-1.59.4-1.92,1.76-.69,1.42.66,1.9,1.62.71,1,1.13-1.92.39-2.7,1.38-.45,1.49-.77,1.93-1.35.65-1.64,1.1-.28,1.31-1.54,1.18-.56-1.25-1.12-1.81-1-1-1.65-1.71-.14-1.35-.76-1.7a1.7,1.7,0,0,1-.75-1l-.22.33c-.22.33-.11.52-1.36,1.51a5.11,5.11,0,0,1-4,.82c-.9-.25-.74-.82-.72-1.54a13.43,13.43,0,0,1,0-2.8c.21-1.12.71-1,2.63-1.75s1.94-.68,2.41-1.15a15.93,15.93,0,0,1,2.61-1.53,10.85,10.85,0,0,0,2.81-3.09c.7-1.09,2-1.76,3.21-2.92a14.86,14.86,0,0,1,6.2-2.89c2.78-.72,2.3-.8,2.92-1.36s.91-.23,2-.37.93,0-.13.66-1.5,1.37-.6.84a4.84,4.84,0,0,1,3-1.11,5.25,5.25,0,0,1,2.29.39c1.44.39,1.68.43.91.74a6.2,6.2,0,0,1-2.11.23,2.5,2.5,0,0,0,1.81.75c1.32.1,2-.63,2.87-.36s1.14.48,0,.42-1.48.39,0,.71a20.35,20.35,0,0,0,3.55.51c1.92.16,2.84,1,4.35,1.4s3.17.06,2.79.88.59,1.65-1.93,2-2.51-.12-4.69-.53-3.72-.81-3.72-.81a13.46,13.46,0,0,0,1.63,1,2,2,0,0,1,1.19,2.16c0,1.06-.43,1.35,1.33,1.88s1.5.38,2,.29,1.41-.19,1.18-.36a2.77,2.77,0,0,0-1-.65c-.58-.16-.66-.56-.11-.75s1.11.17,2.35.13,0-.29.52-.69.51-1,1.91-1.4,3,.17,3.35-.22.69-.84-.2-1.43-1.54-.79-1.09-1.07,1.32-1,1.83-.6,1.73.88.26.8-.27,1.36,1.05,1.28,1.18-.35,2.21-.67,3-1.39,4.43-1.71a4,4,0,0,1,2.38-.08,3.48,3.48,0,0,0,2.27.26c1.6-.2,2-.44,3.53-.6s0,.34.69.48.82.26,1.29,0,2.07-.58,1.23-.94-1.44-.59-1.44-.59.4-.75,1.86-.69a21.39,21.39,0,0,1,5.41,1.48,26.61,26.61,0,0,1,3.61,1.88s.47-.66-.33-1.76-2-.83-2.27-1.86-1.39-.74-1.14-1.47,1.33-1,1.42-1.89.18-1.64,1.23-1.64,3.36.19,3.36.19a3.45,3.45,0,0,1-.32,2c-.53,1.24.8,1.37,1,2.9s.21,1.74.89,2.1,1.92.8,1.68,1.48-.34,1.12-1.82,1.5-3.53.17-2.73.47a11.39,11.39,0,0,0,2.92.68c1.09.1.52,0,1.25-.47s2.4-1.29,2.22-1.69-1.36-1-.74-1.33.76-.76,1.94-.38a9.92,9.92,0,0,1,2.62,1.75A4.88,4.88,0,0,0,322,40.12c-1.5-.8-3.41,0-3.59-.74s.15-1.63-.19-2.38-1-1.47-.4-2.1.51-1.13.51-1.13a2,2,0,0,1,.44,1.34,1,1,0,0,0,1,1.19c.58,0,3.19,0,1.71-.23s-1.94-.48-.67-.94,1.28-.16,3.41.13a33.69,33.69,0,0,0,3.35.48c.68,0,.57-.06.21-.42a3.12,3.12,0,0,0-1.45-.86c-.72-.25-1.07,0-1.39-.33s-1-1.33-1.24-1.69.49-.07,1.56-.07,4-.1,6.24-.14-.43-1.44-.92-2.42,3.8-1,5.84-1.2,4.47-.12,8.19-.67,1.22-.46,1.53-1.11,1.22-.76,2.38-.76,2.26.13,1.86.22-1.53.47.59.72,1.58.24.61.46.09.61,2.14.61.79-.11.29-.51.2-.25,1.95-.09a9.91,9.91,0,0,1,3.64.84c1.15.51,1.27.39,1.91,1.1s.24.61-.91,1.28-2,.67-3.79,1.46-1.08,1.21-2,1.74-.69.38,1.6,0a21.93,21.93,0,0,1,4.78-.55c1.28.08,2,.36,3,.36s0,.1,3,.1,2.54,0,1.69.51.51.67,1.84.67,3,0,4.15-.07-.15-.68,1.29-.71,1.88-.12,3.44-.12,1.28.38,2,.73,1.59.58,1.43,1.27-.43.72.36,1.68A3.86,3.86,0,0,0,386,39.05c1.06.17.52-.87,1.27-1.23s1.51.71,2.49.55a11.18,11.18,0,0,1,3.26.1,8.77,8.77,0,0,0,3.09.1c1.21-.17.63-.49-.09-1s-.73-.45-.18-1,1.23-.25,4.14.18,2.06.43,3.72.68a31.18,31.18,0,0,1,3.83.85c2.7.65,2.71,1.42,4,1.84s1.14,0,3.22-.12,2.22.16,4.82.54,2.28.86,2.55,1.28-.19.75,1.41,1a10.56,10.56,0,0,0,3.45.18c1.13-.2.27.2,3.09.22s1.73-.2,2.81.17,1.8,1.1,3.12,1,1.23-.06.15-.82-1.51-.88-.69-.85,2.62.24,5.88.54S445,44,448.26,45s4,1.07,6.5,2a8.74,8.74,0,0,1,1.21.47,8.72,8.72,0,0,1,1.14.24c2.43.59,1.94.4,4.05.93s4.16,1.28,4.16,1.28S465.51,49.94,464.28,50ZM300.88,73.54s-.17.19.81-.41-.52,0-1.16-.15-.87-.32-.77-.87-.18-.54-1-1.26a1.52,1.52,0,0,0-1.05.15c-.68.3-1.21-.29-2.06-.07s-1.83.12-2.22,1-1.11.32-1.19,1.06-1.7,1.16-1.7,1.16.73.45,1.3.88.18.15.91,1.57,1.07,1.31,1.81,1.52a20.09,20.09,0,0,1,1.93.69s-.72-.28-.59.5-.86,1.33-.56,2.48-1.13,2.26.18,2.37,1,.51,2.42.78a19.11,19.11,0,0,0,4.35.45c2.06,0,.83-.56.39-1.39a9.85,9.85,0,0,1-.92-2.26c-.24-.89-.68-.66-1.1-1.21s0-.86,1-.86,1.07,0,.45-.62-.35-.83-1-1.09-.76.85-.76.85-.44-.26-.47-1.34.18-.56-.33-.77-.74.06-1.49-.66-.17-.56-1.06-1.42-.42-.4.4-.4.37-.12-.07-.4-.77-.7.28-.65,2.45.2,2.95.22S300.88,73.54,300.88,73.54ZM165.65,39.24c-.41.33.33.77,1,.63s.82,0,1.23-.16.5-.43.15-.68-.14-.39-.2-.42C167.11,38.31,166.07,38.9,165.65,39.24ZM329.89,19c-.86,0-1.82,0-1,.19s.78.92,2.18.49,1.07-.46,2-.71.4-.13-.95-.32C331.36,18.52,330.75,19,329.89,19Z"
                  fill="#3b82f6" style="mix-blend-mode:color-dodge"/>
        </g>
    </g>
</svg>